<?xml version="1.0" standalone="no"?>
<!DOCTYPE svg PUBLIC "-//W3C//DTD SVG 20010904//EN"
 "http://www.w3.org/TR/2001/REC-SVG-20010904/DTD/svg10.dtd">
<svg version="1.0" xmlns="http://www.w3.org/2000/svg"
 width="37.000000pt" height="60.000000pt" viewBox="0 0 37.000000 60.000000"
 preserveAspectRatio="xMidYMid meet">

<g transform="translate(0.000000,60.000000) scale(0.100000,-0.100000)"
fill="#000000" stroke="none">
<path d="M228 579 c-11 -6 -18 -22 -18 -40 0 -21 -14 -49 -44 -87 -54 -69 -82
-125 -91 -177 -4 -22 -13 -57 -21 -77 -12 -32 -12 -36 1 -32 13 5 13 0 1 -37
-7 -24 -19 -57 -27 -72 -11 -24 -11 -30 2 -38 28 -18 39 -8 78 73 18 37 37 70
42 73 9 6 14 -22 10 -63 -1 -14 2 -21 8 -18 6 4 18 -5 27 -19 15 -24 17 -24
30 -8 12 16 15 16 24 3 7 -12 10 -12 10 -1 0 7 6 11 15 7 20 -7 19 8 -1 25
-14 11 -15 26 -10 87 6 74 20 113 62 169 29 38 31 90 8 169 -20 68 -58 91
-106 63z m7 -393 c20 -64 17 -90 -12 -94 -23 -3 -53 30 -53 61 0 25 27 87 39
87 5 0 17 -24 26 -54z"/>
</g>
</svg>
