<?xml version="1.0" standalone="no"?>
<!DOCTYPE svg PUBLIC "-//W3C//DTD SVG 20010904//EN"
 "http://www.w3.org/TR/2001/REC-SVG-20010904/DTD/svg10.dtd">
<svg version="1.0" xmlns="http://www.w3.org/2000/svg"
 width="82.000000pt" height="148.000000pt" viewBox="0 0 82.000000 148.000000"
 preserveAspectRatio="xMidYMid meet">

<g transform="translate(0.000000,148.000000) scale(0.100000,-0.100000)"
fill="#000000" stroke="none">
<path d="M670 1446 c0 -21 -20 -30 -33 -17 -17 17 -30 13 -24 -6 3 -10 10 -33
15 -50 10 -30 6 -39 -37 -105 -27 -40 -62 -100 -79 -133 -30 -60 -64 -97 -134
-148 -20 -15 -44 -44 -55 -64 -17 -37 -21 -39 -112 -60 -51 -12 -95 -23 -96
-25 -2 -2 -17 -28 -35 -58 -32 -54 -32 -56 -25 -140 11 -136 8 -206 -10 -245
-12 -26 -13 -27 -14 -8 -1 12 4 34 9 49 13 34 6 43 -10 13 -16 -28 -14 -108 2
-145 8 -19 13 -76 13 -159 0 -129 0 -130 23 -133 21 -3 23 -1 17 18 -9 29 4
293 16 311 7 11 11 10 24 -6 32 -41 66 -117 81 -182 27 -118 46 -148 80 -125
8 5 3 25 -18 67 -35 72 -58 155 -58 209 0 21 10 86 22 143 l22 104 50 -3 51
-3 -3 -200 c-1 -110 0 -224 3 -252 6 -48 9 -53 32 -53 20 0 24 4 18 18 -20 47
-26 120 -16 187 5 39 13 95 16 125 9 90 27 180 35 180 4 0 7 -46 7 -103 0 -78
8 -134 32 -241 17 -76 34 -142 37 -147 6 -11 67 -12 62 -1 -72 140 -78 161
-78 263 0 125 26 278 61 365 11 28 10 38 -11 88 l-23 57 41 87 c23 48 50 125
62 172 39 160 63 200 118 200 28 0 37 21 22 50 -10 18 -8 26 9 44 26 28 29 61
4 51 -45 -18 -54 -18 -60 4 -7 26 -20 27 -26 4 -4 -17 -5 -17 -6 0 -1 20 -21
23 -21 3z m-536 -1060 c-3 -14 -10 -26 -15 -26 -11 0 -11 3 1 36 13 33 23 26
14 -10z"/>
</g>
</svg>
