<?xml version="1.0" standalone="no"?>
<!DOCTYPE svg PUBLIC "-//W3C//DTD SVG 20010904//EN"
 "http://www.w3.org/TR/2001/REC-SVG-20010904/DTD/svg10.dtd">
<svg version="1.0" xmlns="http://www.w3.org/2000/svg"
 width="88.000000pt" height="80.000000pt" viewBox="0 0 88.000000 80.000000"
 preserveAspectRatio="xMidYMid meet">

<g transform="translate(0.000000,80.000000) scale(0.100000,-0.100000)"
fill="#000000" stroke="none">
<path d="M705 768 c-31 -17 -114 -99 -137 -137 -34 -54 -72 -64 -165 -45 -43
9 -81 18 -85 20 -4 3 -39 5 -78 5 -62 1 -75 -3 -105 -25 -46 -36 -52 -48 -90
-200 -32 -125 -32 -153 0 -126 15 12 20 33 30 118 4 28 11 52 16 52 5 0 18
-19 28 -42 15 -36 17 -63 14 -168 -3 -91 0 -132 9 -149 25 -46 34 -34 30 41
-3 67 -2 71 12 54 9 -11 19 -36 22 -55 9 -52 22 -71 45 -71 15 0 19 5 15 15
-3 9 -13 41 -22 71 -15 52 -15 61 1 129 24 100 25 100 70 74 30 -18 58 -24
126 -27 l88 -4 -6 -129 -6 -128 29 -6 c16 -4 37 -9 47 -12 16 -4 17 -2 8 15
-26 48 -2 168 55 286 19 39 34 78 34 86 0 27 60 120 77 120 9 0 26 -9 38 -20
42 -39 73 -3 51 58 -30 84 -35 123 -18 152 17 30 10 52 -9 33 -8 -8 -20 -6
-43 8 -35 22 -52 23 -81 7z"/>
</g>
</svg>
