<?xml version="1.0" standalone="no"?>
<!DOCTYPE svg PUBLIC "-//W3C//DTD SVG 20010904//EN"
 "http://www.w3.org/TR/2001/REC-SVG-20010904/DTD/svg10.dtd">
<svg version="1.0" xmlns="http://www.w3.org/2000/svg"
 width="59.000000pt" height="66.000000pt" viewBox="0 0 59.000000 66.000000"
 preserveAspectRatio="xMidYMid meet">

<g transform="translate(0.000000,66.000000) scale(0.100000,-0.100000)"
fill="#000000" stroke="none">
<path d="M24 620 c3 -14 6 -35 6 -47 0 -13 21 -45 50 -75 50 -54 57 -73 41
-128 -11 -37 4 -69 61 -127 l51 -52 -6 -87 c-3 -47 -4 -84 -1 -82 3 3 10 36
17 74 18 96 37 96 37 0 0 -44 4 -76 10 -76 6 0 10 24 10 53 0 28 3 69 6 89 6
37 8 38 50 38 34 0 51 -7 79 -31 37 -33 44 -63 25 -116 -9 -25 -9 -26 4 -10 8
10 17 38 21 63 7 46 27 66 47 46 6 -6 17 -40 24 -74 l13 -63 -6 75 c-3 41 -12
84 -19 95 -9 12 -14 46 -14 87 0 95 -15 104 -173 110 -110 3 -120 5 -138 27
-10 13 -19 27 -19 32 0 5 27 38 60 75 33 36 60 70 60 74 0 4 -9 10 -20 13 -16
4 -20 0 -20 -17 0 -28 -39 -66 -86 -82 -29 -10 -40 -9 -67 3 -46 23 -77 53
-77 77 0 12 -8 30 -17 41 -15 20 -15 19 -9 -5z"/>
</g>
</svg>
