<?xml version="1.0" standalone="no"?>
<!DOCTYPE svg PUBLIC "-//W3C//DTD SVG 20010904//EN"
 "http://www.w3.org/TR/2001/REC-SVG-20010904/DTD/svg10.dtd">
<svg version="1.0" xmlns="http://www.w3.org/2000/svg"
 width="60.000000pt" height="113.000000pt" viewBox="0 0 60.000000 113.000000"
 preserveAspectRatio="xMidYMid meet">

<g transform="translate(0.000000,113.000000) scale(0.100000,-0.100000)"
fill="#5d4242" stroke="none">
<path d="M418 1093 c-22 -25 -29 -101 -14 -138 7 -17 31 -51 53 -76 48 -56 67
-100 59 -135 -9 -35 -27 -26 -54 27 -35 66 -64 83 -148 87 -79 4 -126 -11
-199 -65 -45 -34 -90 -109 -100 -168 -6 -38 -5 -39 10 -20 9 11 21 20 28 21 7
0 25 4 40 9 31 8 95 -15 123 -46 18 -20 15 -27 -44 -116 -19 -29 -32 -59 -29
-67 3 -8 38 -25 77 -37 49 -15 70 -26 70 -37 1 -49 20 -305 23 -308 2 -2 18
-7 35 -10 40 -8 42 8 4 22 -36 14 -42 40 -42 190 0 89 3 114 13 114 17 0 47
-32 47 -51 1 -8 7 -25 15 -39 15 -24 15 -24 13 20 -3 40 -7 48 -40 69 -34 22
-38 29 -38 65 0 23 5 58 11 79 9 34 17 42 67 63 105 46 125 59 154 98 22 30
28 50 28 88 0 62 -17 95 -91 175 -54 57 -60 68 -57 101 3 34 5 37 38 40 40 3
100 -29 100 -53 0 -8 5 -15 10 -15 6 0 10 16 10 35 0 31 -5 37 -52 65 -60 34
-98 38 -120 13z m-116 -577 c9 -14 10 -40 2 -100 -5 -33 -11 -46 -23 -46 -25
0 -105 30 -113 43 -6 10 35 79 68 112 17 16 53 12 66 -9z"/>
</g>
</svg>
