<?xml version="1.0" standalone="no"?>
<!DOCTYPE svg PUBLIC "-//W3C//DTD SVG 20010904//EN"
 "http://www.w3.org/TR/2001/REC-SVG-20010904/DTD/svg10.dtd">
<svg version="1.0" xmlns="http://www.w3.org/2000/svg"
 width="75.000000pt" height="59.000000pt" viewBox="0 0 75.000000 59.000000"
 preserveAspectRatio="xMidYMid meet">

<g transform="translate(0.000000,59.000000) scale(0.100000,-0.100000)"
fill="#5d4242" stroke="none">
<path d="M545 554 c-14 -15 -25 -33 -25 -40 0 -7 -15 -24 -33 -36 -125 -85
-142 -119 -141 -270 l1 -118 -79 0 c-88 0 -140 20 -177 66 -40 51 -17 161 40
193 60 33 117 -25 85 -88 -13 -25 -14 -31 -3 -31 23 0 57 45 57 74 0 87 -79
128 -166 85 -64 -30 -84 -67 -84 -152 0 -108 40 -167 133 -197 53 -17 399 -19
455 -2 51 15 46 32 -9 32 l-39 0 0 50 c0 28 3 50 6 50 4 0 17 -10 29 -23 12
-12 40 -36 62 -53 34 -27 41 -30 57 -19 29 21 17 58 -22 69 -24 7 -44 24 -68
60 -30 45 -34 58 -34 116 0 74 5 84 40 95 45 14 60 35 60 86 0 57 -23 79 -83
79 -28 0 -44 -7 -62 -26z"/>
</g>
</svg>
