<?xml version="1.0" standalone="no"?>
<!DOCTYPE svg PUBLIC "-//W3C//DTD SVG 20010904//EN"
 "http://www.w3.org/TR/2001/REC-SVG-20010904/DTD/svg10.dtd">
<svg version="1.0" xmlns="http://www.w3.org/2000/svg"
 width="116.000000pt" height="60.000000pt" viewBox="0 0 116.000000 60.000000"
 preserveAspectRatio="xMidYMid meet">

<g transform="translate(0.000000,60.000000) scale(0.100000,-0.100000)"
fill="#5d4242" stroke="none">
<path d="M541 575 c-56 -8 -101 -9 -140 -2 -66 11 -233 2 -262 -13 -14 -8 -29
-8 -48 -2 -27 10 -28 9 -39 -37 -6 -25 -13 -78 -17 -118 -6 -69 -5 -72 20 -89
25 -16 27 -16 49 5 12 11 31 21 42 21 26 0 64 -40 64 -67 0 -34 -123 -189
-175 -220 -17 -10 -18 -13 -5 -22 8 -6 30 -11 48 -11 27 0 49 15 130 88 53 49
103 96 111 105 22 28 35 20 69 -42 30 -54 34 -91 11 -91 -5 0 -9 -7 -9 -15 0
-10 10 -15 33 -15 46 0 56 13 46 63 -4 23 -8 61 -9 84 0 37 3 42 31 52 18 6
42 11 54 11 13 0 53 11 89 25 37 14 70 25 75 25 11 0 41 -119 41 -161 0 -24
-8 -39 -32 -60 l-33 -27 29 -8 c16 -4 36 -3 45 3 27 17 61 89 68 142 3 28 11
51 17 51 20 0 105 -64 115 -88 6 -12 11 -34 11 -48 0 -37 24 -25 28 14 2 17
-6 52 -18 78 -11 26 -18 49 -15 52 3 3 22 -11 43 -31 43 -42 110 -73 124 -59
7 7 -1 16 -23 28 -94 48 -123 89 -144 201 -24 123 -66 163 -190 182 -89 13
-121 12 -234 -4z m402 -267 c9 -21 14 -38 12 -38 -7 0 -35 58 -35 71 0 18 6 9
23 -33z"/>
</g>
</svg>
