<?xml version="1.0" standalone="no"?>
<!DOCTYPE svg PUBLIC "-//W3C//DTD SVG 20010904//EN"
 "http://www.w3.org/TR/2001/REC-SVG-20010904/DTD/svg10.dtd">
<svg version="1.0" xmlns="http://www.w3.org/2000/svg"
 width="64.000000pt" height="64.000000pt" viewBox="0 0 64.000000 64.000000"
 preserveAspectRatio="xMidYMid meet">

<g transform="translate(0.000000,64.000000) scale(0.100000,-0.100000)"
fill="#5d4242" stroke="none">
<path d="M560 591 c0 -42 -9 -61 -30 -61 -21 0 -33 14 -49 55 l-11 30 3 -38
c3 -34 0 -40 -22 -49 l-26 -9 35 -29 c28 -23 33 -31 23 -41 -10 -10 -33 -11
-110 -1 -152 19 -219 16 -280 -12 -63 -30 -87 -63 -78 -106 4 -19 13 -30 24
-30 42 0 55 -54 21 -85 -11 -10 -20 -25 -20 -33 0 -33 35 -162 43 -162 9 0 4
53 -10 107 -3 13 -1 23 3 23 10 0 64 -85 64 -99 0 -5 7 -14 15 -21 23 -19 19
2 -12 64 -30 61 -28 70 25 133 l27 31 75 -6 75 -7 -2 -115 -2 -115 14 65 c13
65 52 160 67 160 14 0 47 -91 54 -150 11 -101 22 -66 16 55 l-5 115 32 52 c19
30 37 77 43 110 7 42 16 61 34 73 31 20 32 46 2 42 -20 -2 -22 2 -19 41 1 25
-2 42 -8 42 -6 0 -11 -13 -11 -29z"/>
</g>
</svg>
