<?xml version="1.0" standalone="no"?>
<!DOCTYPE svg PUBLIC "-//W3C//DTD SVG 20010904//EN"
 "http://www.w3.org/TR/2001/REC-SVG-20010904/DTD/svg10.dtd">
<svg version="1.0" xmlns="http://www.w3.org/2000/svg"
 width="147.000000pt" height="172.000000pt" viewBox="0 0 147.000000 172.000000"
 preserveAspectRatio="xMidYMid meet">

<g transform="translate(0.000000,172.000000) scale(0.100000,-0.100000)"
fill="#5d4242" stroke="none">
<path d="M806 1670 c-36 -40 -48 -80 -23 -80 6 0 25 16 40 35 32 40 51 44 67
15 18 -33 4 -53 -62 -90 -69 -37 -109 -74 -134 -122 -13 -25 -16 -56 -13 -152
1 -67 2 -154 1 -195 -2 -72 -3 -74 -43 -111 l-41 -38 21 -21 c11 -11 31 -21
44 -21 20 1 20 2 5 11 -27 15 -22 25 22 39 22 7 45 19 51 27 28 32 35 5 13
-50 -6 -17 14 -30 61 -41 l30 -7 -23 19 c-23 18 -23 18 -4 42 11 14 27 40 36
58 16 31 19 32 59 26 59 -9 77 -21 77 -49 0 -41 18 -73 50 -90 18 -9 34 -15
36 -13 2 2 -3 26 -11 53 -22 72 -20 84 36 169 28 42 49 80 45 83 -3 3 -27 9
-53 14 -39 8 -50 6 -59 -6 -17 -24 -54 -18 -130 20 -53 27 -81 35 -121 35
l-53 0 0 41 c0 108 40 180 133 239 63 40 87 73 87 122 0 39 -7 51 -37 67 -40
21 -69 13 -107 -29z"/>
<path d="M120 1203 c-34 -12 -50 -37 -50 -74 0 -60 18 -85 94 -135 127 -84
152 -118 141 -189 l-6 -43 -57 1 c-41 1 -68 -5 -97 -21 -22 -12 -56 -24 -77
-27 -36 -5 -36 -6 -43 -63 -6 -54 9 -214 22 -236 3 -5 -3 -15 -13 -23 -18 -14
-18 -14 6 -11 23 3 25 8 30 65 3 34 9 65 14 70 5 5 6 -29 2 -79 -6 -82 -5 -88
13 -88 14 0 20 9 24 39 2 21 13 50 22 65 14 21 20 24 32 14 12 -10 12 -13 -1
-20 -9 -5 -16 -17 -16 -26 0 -10 3 -13 8 -7 4 6 19 16 34 22 15 7 26 18 24 25
-10 32 -15 78 -8 78 4 0 18 -26 31 -56 23 -53 23 -57 8 -69 -15 -11 -15 -14
-3 -25 21 -17 55 -3 62 26 4 14 2 48 -4 76 -8 42 -6 61 9 107 64 197 71 244
44 309 -20 47 -48 77 -110 117 -99 65 -133 125 -70 125 20 0 25 5 25 24 0 32
-43 46 -90 29z"/>
<path d="M1272 880 c-44 -18 -63 -85 -61 -218 1 -131 -9 -182 -46 -226 -21
-27 -26 -29 -50 -18 -61 28 -163 1 -241 -64 -44 -35 -48 -36 -104 -31 l-59 5
-10 -49 c-6 -28 -11 -52 -11 -53 0 -2 17 -7 38 -10 70 -13 72 -14 72 -57 0
-44 -31 -112 -57 -128 -16 -9 -14 -10 9 -11 32 0 103 76 113 121 4 16 13 29
20 29 16 0 52 -48 66 -90 6 -16 15 -27 20 -24 12 7 11 54 -2 93 -13 37 -13 37
23 46 21 5 27 3 32 -13 4 -11 22 -39 41 -63 35 -45 37 -59 4 -59 -10 0 -19 -4
-19 -10 0 -18 57 -10 75 11 16 17 17 25 8 50 l-12 30 66 -5 c71 -5 83 -14 83
-59 0 -16 4 -26 10 -22 28 17 -1 125 -34 125 -23 0 -43 34 -49 80 -4 25 -9 56
-12 70 -5 19 2 36 29 70 40 50 52 95 61 235 9 127 20 162 55 180 28 15 30 14
65 -21 27 -27 40 -33 48 -25 17 17 -16 77 -55 101 -35 21 -78 25 -116 10z"/>
</g>
</svg>
