<?xml version="1.0" standalone="no"?>
<!DOCTYPE svg PUBLIC "-//W3C//DTD SVG 20010904//EN"
 "http://www.w3.org/TR/2001/REC-SVG-20010904/DTD/svg10.dtd">
<svg version="1.0" xmlns="http://www.w3.org/2000/svg"
 width="56.000000pt" height="19.000000pt" viewBox="0 0 56.000000 19.000000"
 preserveAspectRatio="xMidYMid meet">

<g transform="translate(0.000000,19.000000) scale(0.100000,-0.100000)"
fill="#5d4242" stroke="none">
<path d="M450 173 c-20 -9 -79 -19 -135 -24 -66 -4 -125 -16 -174 -33 -40 -14
-84 -26 -97 -26 -13 0 -24 -4 -24 -9 0 -14 39 -21 116 -21 58 0 74 -4 89 -20
26 -28 73 -27 77 3 2 17 11 23 36 25 27 3 34 -1 42 -22 13 -35 23 -33 56 15
15 22 45 49 65 60 46 23 54 35 39 54 -16 19 -46 18 -90 -2z"/>
</g>
</svg>
