<?xml version="1.0" standalone="no"?>
<!DOCTYPE svg PUBLIC "-//W3C//DTD SVG 20010904//EN"
 "http://www.w3.org/TR/2001/REC-SVG-20010904/DTD/svg10.dtd">
<svg version="1.0" xmlns="http://www.w3.org/2000/svg"
 width="20.000000pt" height="52.000000pt" viewBox="0 0 20.000000 52.000000"
 preserveAspectRatio="xMidYMid meet">

<g transform="translate(0.000000,52.000000) scale(0.100000,-0.100000)"
fill="#5d4242" stroke="none">
<path d="M102 486 c-29 -10 -36 -21 -58 -81 -18 -50 -26 -99 -30 -170 -4 -88
-2 -106 18 -155 14 -34 30 -56 41 -58 17 -3 19 2 15 55 -3 52 -1 58 17 61 38
5 74 93 81 199 4 73 2 94 -13 122 -21 41 -27 43 -71 27z"/>
</g>
</svg>
