<?xml version="1.0" standalone="no"?>
<!DOCTYPE svg PUBLIC "-//W3C//DTD SVG 20010904//EN"
 "http://www.w3.org/TR/2001/REC-SVG-20010904/DTD/svg10.dtd">
<svg version="1.0" xmlns="http://www.w3.org/2000/svg"
 width="78.000000pt" height="31.000000pt" viewBox="0 0 78.000000 31.000000"
 preserveAspectRatio="xMidYMid meet">

<g transform="translate(0.000000,31.000000) scale(0.100000,-0.100000)"
fill="#5d4242" stroke="none">
<path d="M555 260 c-46 -47 -85 -54 -85 -16 0 24 -16 36 -50 36 -11 0 -20 -10
-23 -30 -6 -27 -10 -30 -45 -30 -24 0 -49 8 -65 20 -16 13 -28 16 -32 10 -3
-5 -19 -10 -35 -10 -33 0 -191 -79 -198 -98 -3 -9 3 -11 20 -7 13 3 37 1 53
-6 17 -7 50 -11 75 -10 35 2 50 -2 64 -18 14 -16 22 -18 36 -9 31 20 50 3 50
-44 l0 -43 18 35 c13 26 23 35 42 35 20 0 26 -6 28 -28 4 -29 22 -28 22 2 0
18 51 71 87 90 28 14 66 14 80 0 8 -8 16 -3 28 20 10 21 26 34 44 37 19 4 33
17 45 40 9 19 23 37 31 40 33 13 -1 24 -74 24 -77 0 -77 0 -116 -40z"/>
</g>
</svg>
