<?xml version="1.0" standalone="no"?>
<!DOCTYPE svg PUBLIC "-//W3C//DTD SVG 20010904//EN"
 "http://www.w3.org/TR/2001/REC-SVG-20010904/DTD/svg10.dtd">
<svg version="1.0" xmlns="http://www.w3.org/2000/svg"
 width="32.000000pt" height="68.000000pt" viewBox="0 0 32.000000 68.000000"
 preserveAspectRatio="xMidYMid meet">

<g transform="translate(0.000000,68.000000) scale(0.100000,-0.100000)"
fill="#5d4242" stroke="none">
<path d="M68 649 c-13 -13 -32 -50 -42 -81 -21 -62 -13 -88 25 -88 22 0 35
-22 49 -86 6 -27 13 -57 16 -66 4 -13 0 -18 -13 -18 -16 -1 -16 -2 -2 -13 8
-7 18 -20 22 -29 3 -10 13 -18 21 -18 7 0 17 -7 20 -16 3 -8 10 -13 15 -9 17
10 31 -31 44 -122 14 -97 37 -126 37 -46 0 26 7 59 15 73 41 71 41 67 12 149
-41 120 -53 144 -91 190 -39 46 -43 56 -23 48 24 -9 39 30 27 69 -9 26 -17 34
-35 34 -13 0 -27 5 -30 10 -3 6 3 10 14 10 12 0 21 5 21 10 0 6 -8 10 -17 10
-10 0 -28 3 -40 6 -15 4 -29 -1 -45 -17z"/>
</g>
</svg>
