<?xml version="1.0" standalone="no"?>
<!DOCTYPE svg PUBLIC "-//W3C//DTD SVG 20010904//EN"
 "http://www.w3.org/TR/2001/REC-SVG-20010904/DTD/svg10.dtd">
<svg version="1.0" xmlns="http://www.w3.org/2000/svg"
 width="53.000000pt" height="77.000000pt" viewBox="0 0 53.000000 77.000000"
 preserveAspectRatio="xMidYMid meet">

<g transform="translate(0.000000,77.000000) scale(0.100000,-0.100000)"
fill="#5d4242" stroke="none">
<path d="M398 733 c-21 -25 -31 -68 -30 -130 2 -61 -6 -65 -66 -34 -20 10 -56
24 -79 30 -37 10 -48 9 -82 -8 -67 -35 -106 -99 -125 -209 -5 -28 -1 -39 23
-63 16 -16 39 -29 51 -29 11 0 22 -6 24 -12 27 -100 47 -202 44 -229 -3 -31 0
-34 25 -37 31 -4 33 3 12 45 -19 39 -37 131 -29 155 8 27 33 22 45 -9 6 -16
21 -39 34 -53 13 -14 25 -38 27 -55 2 -19 9 -31 21 -33 17 -3 18 1 12 45 -4
26 -14 56 -22 65 -21 24 -12 52 42 132 25 37 43 72 40 77 -3 5 8 41 25 80 22
49 31 83 29 111 -4 47 16 68 65 68 27 1 29 2 13 11 -10 6 -27 31 -37 55 -21
47 -38 54 -62 27z"/>
</g>
</svg>
