<?xml version="1.0" standalone="no"?>
<!DOCTYPE svg PUBLIC "-//W3C//DTD SVG 20010904//EN"
 "http://www.w3.org/TR/2001/REC-SVG-20010904/DTD/svg10.dtd">
<svg version="1.0" xmlns="http://www.w3.org/2000/svg"
 width="215.000000pt" height="117.000000pt" viewBox="0 0 215.000000 117.000000"
 preserveAspectRatio="xMidYMid meet">

<g transform="translate(0.000000,117.000000) scale(0.100000,-0.100000)"
fill="#5d4242" stroke="none">
<path d="M1118 1149 c-22 -13 -24 -67 -3 -75 16 -7 20 -39 6 -48 -5 -3 -20 9
-35 28 -51 68 -174 58 -246 -20 -57 -62 -51 -80 23 -76 50 3 57 1 57 -16 0
-31 12 -33 36 -7 28 30 54 32 61 5 3 -11 8 -20 12 -20 20 0 118 70 129 93 7
15 17 27 22 27 10 0 8 90 -3 108 -10 14 -35 15 -59 1z"/>
<path d="M1302 777 c-37 -38 -42 -55 -10 -33 32 22 62 21 53 -1 -29 -70 -47
-135 -41 -156 10 -40 42 -73 85 -86 46 -13 71 -49 71 -103 0 -18 7 -55 15 -83
l15 -50 -5 103 c-4 95 -3 102 15 102 10 0 33 -12 50 -26 17 -15 33 -24 36 -21
14 14 -28 117 -65 159 -33 36 -52 48 -101 62 l-60 17 6 66 c5 50 4 67 -7 74
-20 13 -22 12 -57 -24z"/>
<path d="M80 693 c-16 -6 -30 -23 -30 -35 0 -4 14 -5 30 -1 28 5 30 3 30 -23
0 -20 -12 -41 -41 -70 -30 -30 -42 -52 -46 -82 -8 -58 13 -67 152 -67 116 1
149 10 160 45 18 55 -92 138 -167 126 l-39 -6 6 34 c5 24 2 42 -10 60 -18 27
-20 28 -45 19z"/>
<path d="M1931 346 l-23 -24 54 -37 c43 -30 48 -36 25 -31 -30 7 -132 -17
-155 -37 -44 -36 -81 -197 -42 -182 42 17 70 16 108 -4 58 -30 86 -28 48 2
-35 29 -31 39 48 117 40 39 56 62 56 81 0 27 15 39 50 39 43 0 26 21 -47 59
-43 23 -83 41 -89 41 -6 0 -21 -11 -33 -24z"/>
<path d="M1421 229 c-13 -11 -21 -22 -18 -25 10 -11 87 19 87 34 0 12 -3 12
-16 1 -11 -9 -18 -9 -22 -2 -5 8 -15 5 -31 -8z"/>
</g>
</svg>
