<?xml version="1.0" standalone="no"?>
<!DOCTYPE svg PUBLIC "-//W3C//DTD SVG 20010904//EN"
 "http://www.w3.org/TR/2001/REC-SVG-20010904/DTD/svg10.dtd">
<svg version="1.0" xmlns="http://www.w3.org/2000/svg"
 width="106.000000pt" height="78.000000pt" viewBox="0 0 106.000000 78.000000"
 preserveAspectRatio="xMidYMid meet">

<g transform="translate(0.000000,78.000000) scale(0.100000,-0.100000)"
fill="#5d4242" stroke="none">
<path d="M80 730 c0 -20 -11 -42 -35 -67 -38 -40 -37 -53 3 -53 68 0 73 -7 70
-78 -3 -63 -4 -66 -40 -89 -27 -17 -38 -30 -38 -48 0 -14 5 -25 10 -25 6 0 10
11 10 25 0 14 6 25 14 25 9 0 13 -13 13 -41 0 -43 14 -66 33 -54 8 5 7 12 -5
25 -16 18 -15 19 14 35 33 17 51 13 51 -10 0 -9 -7 -11 -22 -7 -18 4 -20 2
-15 -19 4 -13 7 -35 7 -48 0 -17 4 -22 16 -17 9 3 26 -4 42 -19 15 -13 45 -39
66 -58 29 -25 37 -39 32 -52 -5 -15 -16 -17 -81 -13 -64 4 -77 2 -91 -14 -10
-10 -15 -20 -13 -23 3 -2 46 1 97 7 97 13 121 7 109 -26 -5 -13 -23 -16 -90
-16 -58 0 -89 -4 -103 -15 -16 -13 -17 -16 -4 -25 8 -6 24 -8 35 -5 11 3 69
10 130 16 60 6 111 12 113 14 2 2 -4 17 -12 34 -18 33 -20 57 -8 65 19 11 82
-16 102 -44 49 -69 130 -90 253 -65 208 41 225 43 261 35 27 -6 36 -5 36 5 0
27 -53 37 -141 26 -115 -15 -258 -13 -288 3 -31 17 -79 90 -92 140 -47 186
-82 235 -180 257 -62 14 -112 52 -128 96 -7 21 -21 46 -29 56 -13 15 -14 22
-4 37 7 11 12 27 12 35 0 17 -16 20 -25 5 -3 -5 -15 -15 -26 -20 -16 -9 -21
-7 -29 15 -13 34 -30 32 -30 -5z"/>
</g>
</svg>
