<?xml version="1.0" standalone="no"?>
<!DOCTYPE svg PUBLIC "-//W3C//DTD SVG 20010904//EN"
 "http://www.w3.org/TR/2001/REC-SVG-20010904/DTD/svg10.dtd">
<svg version="1.0" xmlns="http://www.w3.org/2000/svg"
 width="83.000000pt" height="56.000000pt" viewBox="0 0 83.000000 56.000000"
 preserveAspectRatio="xMidYMid meet">

<g transform="translate(0.000000,56.000000) scale(0.100000,-0.100000)"
fill="#5d4242" stroke="none">
<path d="M547 527 c-2 -7 4 -29 14 -49 22 -43 24 -88 7 -107 -11 -11 -8 -12
14 -7 23 5 30 2 43 -23 19 -37 19 -61 2 -61 -8 0 -21 -8 -30 -18 -18 -20 -23
-52 -8 -52 5 0 7 9 4 20 -4 17 0 20 24 20 17 0 43 -7 60 -15 16 -8 51 -18 76
-21 43 -6 47 -5 56 17 11 31 4 48 -25 60 -20 7 -24 15 -24 52 0 54 -23 86 -79
112 -30 13 -41 24 -41 40 0 15 -8 25 -22 30 -41 13 -67 14 -71 2z m247 -264
c11 -27 -8 -36 -60 -27 -57 11 -69 31 -22 37 66 8 76 7 82 -10z"/>
<path d="M160 180 c-8 -6 -38 -10 -66 -10 -58 0 -85 -18 -59 -40 32 -27 118
-60 155 -60 22 0 43 -6 47 -12 26 -41 95 -44 122 -5 11 16 21 18 65 13 44 -6
60 -3 114 24 34 16 62 32 62 35 0 8 -65 32 -106 39 -27 5 -52 2 -79 -9 -36
-15 -40 -16 -51 -1 -13 19 -55 21 -72 4 -9 -9 -22 -8 -54 1 -24 7 -48 17 -53
21 -6 5 -17 5 -25 0z"/>
</g>
</svg>
