<?xml version="1.0" standalone="no"?>
<!DOCTYPE svg PUBLIC "-//W3C//DTD SVG 20010904//EN"
 "http://www.w3.org/TR/2001/REC-SVG-20010904/DTD/svg10.dtd">
<svg version="1.0" xmlns="http://www.w3.org/2000/svg"
 width="64.000000pt" height="86.000000pt" viewBox="0 0 64.000000 86.000000"
 preserveAspectRatio="xMidYMid meet">

<g transform="translate(0.000000,86.000000) scale(0.100000,-0.100000)"
fill="#5d4242" stroke="none">
<path d="M411 837 c-6 -6 -11 -24 -11 -39 0 -21 5 -28 20 -28 18 0 20 -7 20
-62 1 -35 8 -81 17 -103 8 -22 15 -50 15 -62 0 -13 4 -23 10 -23 5 0 6 -10 2
-22 -6 -19 -5 -21 8 -11 8 7 18 10 21 6 4 -3 7 -110 8 -237 0 -131 4 -220 9
-206 10 32 30 230 30 297 0 60 11 73 34 38 25 -38 34 -30 25 20 -5 24 -13 95
-20 157 -12 122 -30 168 -92 241 -33 39 -76 54 -96 34z"/>
<path d="M234 665 c-18 -28 -20 -57 -9 -123 8 -42 8 -42 -56 -102 -35 -33 -83
-72 -106 -86 -24 -14 -43 -30 -43 -36 0 -11 4 -10 93 22 59 21 97 19 118 -6 6
-8 23 -13 38 -13 17 1 20 3 9 6 -25 6 -23 45 5 79 20 26 22 40 22 140 0 79 4
116 14 127 12 15 9 17 -28 17 -32 0 -44 -5 -57 -25z"/>
</g>
</svg>
