<?xml version="1.0" standalone="no"?>
<!DOCTYPE svg PUBLIC "-//W3C//DTD SVG 20010904//EN"
 "http://www.w3.org/TR/2001/REC-SVG-20010904/DTD/svg10.dtd">
<svg version="1.0" xmlns="http://www.w3.org/2000/svg"
 width="113.000000pt" height="80.000000pt" viewBox="0 0 113.000000 80.000000"
 preserveAspectRatio="xMidYMid meet">

<g transform="translate(0.000000,80.000000) scale(0.100000,-0.100000)"
fill="#5d4242" stroke="none">
<path d="M848 758 c-9 -15 -13 -40 -10 -71 4 -43 9 -51 49 -82 32 -25 49 -32
58 -25 7 5 35 14 63 20 61 11 104 37 100 58 -5 24 -49 50 -108 65 -29 8 -56
20 -59 28 -11 36 -72 40 -93 7z"/>
<path d="M340 725 l-23 -25 46 0 c41 0 47 -3 47 -21 0 -11 -7 -33 -16 -49 -27
-45 -9 -79 59 -114 31 -16 57 -35 57 -41 0 -15 -43 -35 -76 -35 -16 0 -24 -5
-22 -12 9 -25 46 -19 83 13 31 27 47 34 96 37 52 4 59 2 59 -13 0 -10 3 -15 7
-11 4 4 7 19 8 33 0 21 12 35 53 62 l53 36 -73 22 c-84 26 -133 31 -201 20
l-47 -8 1 43 c1 24 -4 53 -12 66 -19 31 -68 30 -99 -3z"/>
<path d="M51 581 c-10 -6 -12 -21 -9 -49 4 -27 0 -53 -13 -83 -16 -34 -17 -48
-9 -74 15 -45 52 -76 107 -90 45 -11 48 -15 55 -51 4 -21 7 -64 7 -96 1 -50
-2 -59 -26 -76 l-26 -19 39 2 c58 3 58 4 42 23 -12 12 -17 44 -20 110 l-3 94
33 -6 c17 -3 48 -9 67 -12 l35 -6 0 41 c0 56 -20 100 -63 138 -43 38 -98 57
-143 50 -39 -7 -50 4 -34 33 13 25 32 25 105 0 32 -11 60 -18 63 -16 2 3 -30
20 -71 39 -41 19 -77 39 -81 46 -9 13 -35 14 -55 2z"/>
<path d="M641 418 c-1 -18 6 -31 20 -38 26 -14 41 -2 16 12 -10 5 -22 19 -27
31 -8 21 -9 20 -9 -5z"/>
</g>
</svg>
