<?xml version="1.0" standalone="no"?>
<!DOCTYPE svg PUBLIC "-//W3C//DTD SVG 20010904//EN"
 "http://www.w3.org/TR/2001/REC-SVG-20010904/DTD/svg10.dtd">
<svg version="1.0" xmlns="http://www.w3.org/2000/svg"
 width="53.000000pt" height="32.000000pt" viewBox="0 0 53.000000 32.000000"
 preserveAspectRatio="xMidYMid meet">

<g transform="translate(0.000000,32.000000) scale(0.100000,-0.100000)"
fill="#5d4242" stroke="none">
<path d="M200 291 c-78 -15 -126 -49 -169 -121 -26 -43 -26 -42 -1 -70 11 -13
20 -36 20 -52 0 -24 4 -28 26 -28 17 0 28 6 31 20 6 22 18 26 28 10 9 -15 51
-12 65 5 19 22 46 18 69 -11 29 -37 65 -30 69 14 2 23 8 32 22 32 10 0 22 -9
25 -21 5 -15 14 -19 33 -17 24 3 27 7 24 40 -3 36 -1 37 40 49 l43 11 -25 20
c-16 13 -32 17 -49 13 -42 -11 -46 -11 -44 2 3 17 -68 90 -100 102 -30 12 -52
12 -107 2z"/>
</g>
</svg>
