<?xml version="1.0" standalone="no"?>
<!DOCTYPE svg PUBLIC "-//W3C//DTD SVG 20010904//EN"
 "http://www.w3.org/TR/2001/REC-SVG-20010904/DTD/svg10.dtd">
<svg version="1.0" xmlns="http://www.w3.org/2000/svg"
 width="81.000000pt" height="33.000000pt" viewBox="0 0 81.000000 33.000000"
 preserveAspectRatio="xMidYMid meet">

<g transform="translate(0.000000,33.000000) scale(0.100000,-0.100000)"
fill="#5d4242" stroke="none">
<path d="M78 306 l-57 -8 6 -47 c8 -66 18 -80 63 -87 22 -4 45 -13 51 -20 19
-22 13 -66 -10 -85 -28 -23 -27 -29 9 -29 51 0 79 20 92 64 16 56 19 58 69 47
64 -14 92 -67 52 -96 -16 -12 -14 -14 20 -20 43 -8 67 6 67 39 0 12 7 31 15
42 15 19 15 19 30 0 18 -24 19 -58 3 -74 -17 -17 42 -16 66 1 16 12 17 21 9
75 -6 34 -8 64 -6 66 2 2 29 -7 61 -20 96 -40 172 -28 172 25 0 27 -4 31 -37
36 -67 10 -114 26 -177 58 -61 31 -62 32 -251 37 -105 3 -216 1 -247 -4z"/>
</g>
</svg>
