<?xml version="1.0" standalone="no"?>
<!DOCTYPE svg PUBLIC "-//W3C//DTD SVG 20010904//EN"
 "http://www.w3.org/TR/2001/REC-SVG-20010904/DTD/svg10.dtd">
<svg version="1.0" xmlns="http://www.w3.org/2000/svg"
 width="80.000000pt" height="46.000000pt" viewBox="0 0 80.000000 46.000000"
 preserveAspectRatio="xMidYMid meet">

<g transform="translate(0.000000,46.000000) scale(0.100000,-0.100000)"
fill="#5d4242" stroke="none">
<path d="M54 436 c-18 -8 -34 -18 -37 -23 -9 -14 9 -36 45 -52 21 -11 42 -33
59 -64 14 -26 38 -61 54 -77 29 -31 29 -31 7 -37 -26 -6 -30 -33 -5 -33 15 0
14 -2 -3 -15 -16 -13 -17 -16 -4 -25 26 -17 45 -11 87 25 35 30 49 35 90 35
27 0 74 5 105 10 63 12 108 1 108 -26 0 -17 5 -17 108 2 62 12 30 -45 -39 -67
-82 -26 -169 -63 -169 -71 0 -11 5 -10 43 5 18 7 59 19 92 26 97 21 143 40
170 72 44 53 28 102 -62 195 -51 52 -67 63 -112 73 -76 16 -134 14 -191 -9
-68 -27 -110 -25 -151 5 -19 13 -43 31 -54 39 -30 22 -105 28 -141 12z"/>
</g>
</svg>
