<?xml version="1.0" standalone="no"?>
<!DOCTYPE svg PUBLIC "-//W3C//DTD SVG 20010904//EN"
 "http://www.w3.org/TR/2001/REC-SVG-20010904/DTD/svg10.dtd">
<svg version="1.0" xmlns="http://www.w3.org/2000/svg"
 width="51.000000pt" height="22.000000pt" viewBox="0 0 51.000000 22.000000"
 preserveAspectRatio="xMidYMid meet">

<g transform="translate(0.000000,22.000000) scale(0.100000,-0.100000)"
fill="#5d4242" stroke="none">
<path d="M80 202 c-25 -8 -60 -44 -60 -63 0 -19 41 -49 68 -49 27 0 53 -22 55
-47 1 -24 22 -37 40 -26 6 4 79 9 162 13 82 3 143 9 135 12 -81 32 -158 50
-197 44 -35 -5 -43 -3 -43 11 0 8 -10 31 -21 50 -17 27 -27 34 -49 31 -15 -1
-34 2 -41 8 -23 18 -33 22 -49 16z"/>
</g>
</svg>
