<?xml version="1.0" standalone="no"?>
<!DOCTYPE svg PUBLIC "-//W3C//DTD SVG 20010904//EN"
 "http://www.w3.org/TR/2001/REC-SVG-20010904/DTD/svg10.dtd">
<svg version="1.0" xmlns="http://www.w3.org/2000/svg"
 width="42.000000pt" height="44.000000pt" viewBox="0 0 42.000000 44.000000"
 preserveAspectRatio="xMidYMid meet">

<g transform="translate(0.000000,44.000000) scale(0.100000,-0.100000)"
fill="#5d4242" stroke="none">
<path d="M37 402 c-23 -25 -21 -55 3 -77 11 -10 20 -30 20 -44 0 -31 31 -84
68 -116 24 -21 25 -26 14 -44 -18 -31 -17 -32 43 -25 l54 7 28 -46 c27 -45 29
-46 68 -40 45 6 75 19 75 32 0 5 -13 25 -30 46 -22 27 -28 44 -24 61 5 18 2
24 -9 24 -9 0 -30 20 -46 44 -17 24 -49 58 -71 76 -22 18 -54 52 -71 76 -26
39 -34 44 -68 44 -24 0 -44 -7 -54 -18z"/>
</g>
</svg>
