<?xml version="1.0" standalone="no"?>
<!DOCTYPE svg PUBLIC "-//W3C//DTD SVG 20010904//EN"
 "http://www.w3.org/TR/2001/REC-SVG-20010904/DTD/svg10.dtd">
<svg version="1.0" xmlns="http://www.w3.org/2000/svg"
 width="93.000000pt" height="56.000000pt" viewBox="0 0 93.000000 56.000000"
 preserveAspectRatio="xMidYMid meet">

<g transform="translate(0.000000,56.000000) scale(0.100000,-0.100000)"
fill="#5d4242" stroke="none">
<path d="M359 540 c-13 -4 -40 -15 -58 -25 -28 -14 -48 -16 -101 -11 l-66 6
-13 -36 c-7 -19 -33 -60 -57 -90 -24 -29 -44 -58 -44 -63 0 -15 95 -31 189
-31 102 0 96 6 107 -110 6 -64 6 -65 -25 -88 -41 -30 -39 -42 7 -42 21 0 48
-7 60 -16 14 -10 38 -14 69 -12 44 3 49 6 70 43 17 29 23 56 23 102 0 34 4 64
9 67 5 4 38 -4 73 -16 57 -21 63 -26 66 -54 2 -19 -3 -36 -12 -44 -22 -17 -20
-27 5 -33 15 -4 20 -11 15 -21 -3 -9 -9 -22 -12 -30 -11 -28 83 -29 106 -1 5
6 17 31 25 55 8 24 27 59 42 79 41 53 72 139 73 197 0 47 -3 54 -45 97 -66 67
-100 75 -306 80 -96 1 -186 0 -200 -3z m61 -450 c0 -16 -18 -30 -41 -30 -5 0
-2 14 6 30 17 32 35 32 35 0z"/>
</g>
</svg>
