<?xml version="1.0" standalone="no"?>
<!DOCTYPE svg PUBLIC "-//W3C//DTD SVG 20010904//EN"
 "http://www.w3.org/TR/2001/REC-SVG-20010904/DTD/svg10.dtd">
<svg version="1.0" xmlns="http://www.w3.org/2000/svg"
 width="56.000000pt" height="61.000000pt" viewBox="0 0 56.000000 61.000000"
 preserveAspectRatio="xMidYMid meet">

<g transform="translate(0.000000,61.000000) scale(0.100000,-0.100000)"
fill="#5d4242" stroke="none">
<path d="M249 522 c-35 -37 -83 -99 -107 -137 -23 -39 -63 -98 -87 -133 -37
-52 -43 -67 -35 -83 10 -19 40 -26 53 -12 4 3 0 14 -9 24 -9 10 -13 22 -10 27
8 14 172 152 180 152 12 0 6 -27 -19 -88 -30 -74 -32 -125 -5 -174 18 -34 18
-38 4 -53 -23 -23 -10 -30 28 -15 49 20 51 24 38 78 -12 46 -12 52 9 86 24 39
37 43 66 23 13 -11 20 -32 24 -89 4 -41 13 -83 20 -92 16 -19 57 -17 53 3 -1
7 -7 56 -12 109 -5 54 -12 123 -16 155 -6 47 -4 57 8 57 18 0 30 -27 59 -133
21 -82 20 -107 -6 -107 -19 0 -19 -11 -1 -36 12 -15 18 -17 33 -8 15 10 18 25
18 100 0 49 -4 125 -9 169 l-8 80 -81 82 c-52 53 -88 83 -102 83 -14 0 -45
-25 -86 -68z"/>
</g>
</svg>
