<?xml version="1.0" standalone="no"?>
<!DOCTYPE svg PUBLIC "-//W3C//DTD SVG 20010904//EN"
 "http://www.w3.org/TR/2001/REC-SVG-20010904/DTD/svg10.dtd">
<svg version="1.0" xmlns="http://www.w3.org/2000/svg"
 width="117.000000pt" height="58.000000pt" viewBox="0 0 117.000000 58.000000"
 preserveAspectRatio="xMidYMid meet">

<g transform="translate(0.000000,58.000000) scale(0.100000,-0.100000)"
fill="#5d4242" stroke="none">
<path d="M910 562 c-54 -6 -176 -35 -186 -43 -7 -6 -60 0 -135 13 -68 13 -163
23 -211 23 -80 0 -89 -2 -130 -30 -55 -39 -84 -92 -98 -179 -13 -80 -56 -152
-101 -168 -34 -12 -36 -19 -10 -35 11 -7 21 -23 23 -35 3 -19 10 -23 48 -26
l45 -3 -23 23 c-12 14 -22 29 -22 34 0 33 153 130 184 118 18 -7 19 -12 16
-77 -2 -43 2 -51 38 -87 29 -30 48 -40 71 -40 41 0 39 12 -4 33 -58 28 -58 60
1 194 l24 55 33 -22 c42 -28 82 -46 137 -62 l45 -13 -4 -96 c-4 -114 6 -131
67 -122 46 7 52 12 24 20 -31 8 -36 40 -16 98 22 68 30 76 59 63 23 -10 102
-102 138 -161 15 -23 24 -27 60 -27 l42 1 -27 22 c-21 18 -81 128 -79 147 1 3
14 8 30 12 16 5 45 26 65 48 20 22 44 40 53 40 19 0 83 35 83 46 0 21 -65 196
-77 205 -17 15 -128 36 -163 31z m-688 -148 c-6 -36 -35 -104 -42 -99 -8 5 3
74 16 108 8 23 30 16 26 -9z"/>
</g>
</svg>
