<?xml version="1.0" standalone="no"?>
<!DOCTYPE svg PUBLIC "-//W3C//DTD SVG 20010904//EN"
 "http://www.w3.org/TR/2001/REC-SVG-20010904/DTD/svg10.dtd">
<svg version="1.0" xmlns="http://www.w3.org/2000/svg"
 width="78.000000pt" height="48.000000pt" viewBox="0 0 78.000000 48.000000"
 preserveAspectRatio="xMidYMid meet">

<g transform="translate(0.000000,48.000000) scale(0.100000,-0.100000)"
fill="#5d4242" stroke="none">
<path d="M219 435 c-83 -29 -107 -41 -142 -74 -41 -37 -57 -73 -57 -126 0 -71
54 -110 93 -67 23 25 21 49 -4 62 -16 9 -24 8 -38 -4 -40 -36 -35 31 6 75 28
31 117 76 157 81 26 3 30 -1 45 -48 9 -27 27 -64 39 -81 17 -24 22 -45 22 -90
0 -62 11 -83 43 -83 17 0 18 5 13 35 -8 43 14 49 32 10 12 -25 57 -53 68 -42
3 3 -2 17 -11 31 -9 14 -15 33 -13 43 3 13 9 8 25 -22 32 -61 90 -123 101
-107 6 9 18 11 38 6 l28 -7 -18 28 c-28 43 -37 95 -24 133 9 24 16 31 28 26
35 -16 77 -15 93 1 14 14 16 29 11 88 -4 40 -13 79 -20 87 -9 9 -47 16 -116
21 -68 4 -121 14 -156 28 -69 28 -156 27 -243 -4z"/>
</g>
</svg>
