<?xml version="1.0" standalone="no"?>
<!DOCTYPE svg PUBLIC "-//W3C//DTD SVG 20010904//EN"
 "http://www.w3.org/TR/2001/REC-SVG-20010904/DTD/svg10.dtd">
<svg version="1.0" xmlns="http://www.w3.org/2000/svg"
 width="88.000000pt" height="62.000000pt" viewBox="0 0 88.000000 62.000000"
 preserveAspectRatio="xMidYMid meet">

<g transform="translate(0.000000,62.000000) scale(0.100000,-0.100000)"
fill="#5d4242" stroke="none">
<path d="M680 584 c0 -9 -20 -24 -47 -36 -27 -11 -60 -31 -74 -45 -24 -22 -41
-26 -178 -39 -186 -17 -222 -26 -255 -65 -24 -28 -26 -38 -26 -128 0 -84 -3
-102 -21 -125 -26 -34 -47 -33 -52 2 -4 26 -4 26 -6 -5 -1 -26 4 -33 29 -41
21 -8 31 -20 38 -44 8 -34 35 -47 70 -33 14 5 12 9 -11 21 -31 16 -35 45 -11
69 16 15 20 13 58 -29 41 -46 75 -61 83 -38 3 7 -4 12 -15 12 -43 0 -42 56 2
135 37 66 35 65 124 39 47 -14 104 -15 150 -3 18 5 27 -11 52 -99 l21 -73 37
3 c43 3 54 28 26 59 -24 27 -14 94 31 205 43 104 63 128 106 128 58 1 64 55
13 115 -23 28 -31 31 -85 31 -47 0 -59 -3 -59 -16z"/>
</g>
</svg>
