<?xml version="1.0" standalone="no"?>
<!DOCTYPE svg PUBLIC "-//W3C//DTD SVG 20010904//EN"
 "http://www.w3.org/TR/2001/REC-SVG-20010904/DTD/svg10.dtd">
<svg version="1.0" xmlns="http://www.w3.org/2000/svg"
 width="72.000000pt" height="77.000000pt" viewBox="0 0 72.000000 77.000000"
 preserveAspectRatio="xMidYMid meet">

<g transform="translate(0.000000,77.000000) scale(0.100000,-0.100000)"
fill="#5d4242" stroke="none">
<path d="M537 748 c-65 -14 -102 -38 -159 -106 -25 -30 -35 -34 -110 -43 -112
-15 -152 -4 -156 39 -2 18 -7 32 -12 32 -16 0 -22 -40 -15 -98 4 -39 1 -73 -9
-107 -9 -29 -16 -88 -16 -141 0 -70 -5 -100 -20 -132 -11 -22 -20 -53 -20 -67
0 -40 37 -105 60 -105 30 0 33 17 10 50 -29 40 -22 61 39 134 28 33 60 79 71
103 11 24 27 43 35 43 24 0 86 -140 98 -224 l11 -76 48 0 c51 0 67 17 21 22
-26 3 -28 7 -31 53 -1 28 -7 88 -13 134 -12 97 -10 101 61 101 l45 0 0 -142 0
-143 43 -6 c42 -5 59 4 22 14 -37 10 -44 46 -23 128 10 41 22 73 27 72 6 -1
25 -49 44 -107 l34 -106 35 0 c30 0 34 3 28 18 -16 37 -46 161 -55 226 -6 38
-13 79 -16 92 -6 22 -5 22 31 11 30 -9 38 -8 45 4 17 26 23 102 11 134 -6 17
-11 41 -11 54 0 28 -34 94 -61 120 -27 25 -46 29 -92 19z"/>
</g>
</svg>
