<?xml version="1.0" standalone="no"?>
<!DOCTYPE svg PUBLIC "-//W3C//DTD SVG 20010904//EN"
 "http://www.w3.org/TR/2001/REC-SVG-20010904/DTD/svg10.dtd">
<svg version="1.0" xmlns="http://www.w3.org/2000/svg"
 width="82.000000pt" height="82.000000pt" viewBox="0 0 82.000000 82.000000"
 preserveAspectRatio="xMidYMid meet">

<g transform="translate(0.000000,82.000000) scale(0.100000,-0.100000)"
fill="#5d4242" stroke="none">
<path d="M624 787 c-11 -7 -36 -24 -55 -39 -19 -14 -92 -55 -164 -89 -105 -51
-142 -75 -191 -124 -71 -70 -81 -99 -60 -169 l15 -49 -75 -81 c-40 -44 -74
-86 -74 -92 0 -21 96 -94 124 -94 14 0 26 3 26 6 0 3 -17 21 -37 40 l-37 35
45 39 c24 22 49 39 55 40 6 0 17 -38 24 -90 l13 -90 74 0 c54 0 74 3 71 12 -3
7 -15 15 -29 18 -24 6 -24 8 -30 155 -4 83 -5 153 -3 156 6 11 146 31 154 23
4 -5 10 -43 13 -84 3 -41 10 -97 16 -124 11 -48 3 -103 -19 -147 -10 -19 -3
-29 20 -29 26 0 60 98 76 215 17 131 27 153 44 99 7 -21 24 -59 39 -84 19 -33
27 -64 31 -115 5 -65 7 -70 29 -73 l24 -4 -7 122 c-4 67 -13 147 -22 178 -22
82 -29 184 -15 210 8 15 25 24 52 28 60 10 65 27 42 147 -10 54 -113 87 -169
54z"/>
</g>
</svg>
