<?xml version="1.0" standalone="no"?>
<!DOCTYPE svg PUBLIC "-//W3C//DTD SVG 20010904//EN"
 "http://www.w3.org/TR/2001/REC-SVG-20010904/DTD/svg10.dtd">
<svg version="1.0" xmlns="http://www.w3.org/2000/svg"
 width="111.000000pt" height="99.000000pt" viewBox="0 0 111.000000 99.000000"
 preserveAspectRatio="xMidYMid meet">

<g transform="translate(0.000000,99.000000) scale(0.100000,-0.100000)"
fill="#5d4242" stroke="none">
<path d="M317 961 c-8 -9 -19 -36 -25 -61 -10 -39 -9 -47 5 -57 13 -10 14 -13
2 -13 -23 0 12 -20 37 -20 24 0 124 -47 124 -58 0 -4 23 -8 51 -10 29 -2 67
-9 87 -17 32 -14 34 -18 28 -46 l-6 -32 50 6 c49 6 50 6 87 -40 21 -26 64 -72
97 -102 32 -31 64 -68 72 -83 9 -16 20 -25 28 -22 8 3 17 1 21 -5 10 -16 25
-13 25 5 0 11 5 14 16 10 8 -3 26 -3 40 0 19 5 22 9 14 24 -11 20 2 36 19 25
11 -6 -35 80 -96 183 -43 70 -110 132 -144 132 -32 0 -30 19 3 39 67 40 70 60
20 114 -22 23 -34 27 -79 27 -58 0 -73 -14 -73 -69 0 -34 -11 -39 -31 -15 -21
26 -69 46 -143 59 -39 8 -103 20 -143 28 -65 13 -73 13 -86 -2z"/>
<path d="M73 847 c-61 -47 -63 -56 -41 -192 31 -192 49 -240 113 -309 51 -54
58 -58 90 -53 19 3 37 2 40 -3 10 -17 -27 -74 -86 -133 -71 -71 -79 -90 -48
-123 26 -28 42 -20 63 30 19 44 58 80 121 110 l54 27 40 -26 c23 -14 41 -30
41 -36 0 -14 42 -7 48 9 2 6 -4 12 -15 12 -10 0 -33 9 -50 20 -37 22 -45 63
-15 78 29 15 102 23 102 12 0 -6 14 0 31 12 39 29 21 35 -41 12 -47 -17 -51
-17 -67 -1 -16 16 -16 19 0 52 16 34 39 45 52 25 11 -18 23 -11 28 17 12 62
-38 106 -114 101 -46 -3 -37 -13 -118 133 -67 122 -163 259 -180 259 -3 0 -25
-15 -48 -33z"/>
</g>
</svg>
