<?xml version="1.0" standalone="no"?>
<!DOCTYPE svg PUBLIC "-//W3C//DTD SVG 20010904//EN"
 "http://www.w3.org/TR/2001/REC-SVG-20010904/DTD/svg10.dtd">
<svg version="1.0" xmlns="http://www.w3.org/2000/svg"
 width="75.000000pt" height="66.000000pt" viewBox="0 0 75.000000 66.000000"
 preserveAspectRatio="xMidYMid meet">

<g transform="translate(0.000000,66.000000) scale(0.100000,-0.100000)"
fill="#5d4242" stroke="none">
<path d="M120 638 c-19 -5 -50 -12 -67 -15 -41 -7 -42 -19 -3 -28 24 -5 30
-12 30 -33 0 -15 -9 -40 -20 -57 -23 -34 -26 -106 -9 -169 9 -34 8 -42 -5 -52
-15 -10 -14 -12 4 -17 18 -5 20 -10 14 -61 -6 -54 -6 -55 21 -62 15 -4 45 -1
67 5 39 12 40 13 38 59 -3 66 -3 67 28 82 26 12 26 13 6 19 l-22 6 19 60 c25
80 24 105 -6 145 -22 30 -23 35 -10 50 42 46 -11 88 -85 68z"/>
<path d="M411 444 c-11 -14 -23 -34 -26 -45 -5 -15 -16 -19 -56 -19 -41 0 -49
-3 -49 -19 0 -24 26 -34 50 -19 10 7 22 9 26 6 14 -15 -6 -35 -45 -47 -46 -13
-60 -34 -43 -61 9 -14 8 -19 -4 -24 -30 -12 -10 -40 36 -51 36 -9 49 -9 68 3
21 14 22 13 22 -17 0 -17 4 -31 9 -31 27 0 54 86 30 100 -11 7 -10 15 4 45 9
20 17 42 17 49 0 15 30 26 73 26 37 0 78 40 70 69 -8 32 -64 61 -116 61 -37 0
-49 -5 -66 -26z m140 -20 c19 -12 8 -44 -21 -59 -40 -21 -74 -20 -66 1 4 10 0
21 -9 28 -10 7 -14 18 -9 30 6 15 14 17 51 12 25 -3 49 -8 54 -12z m-223 -166
c2 -9 -6 -18 -18 -21 -14 -4 -20 0 -20 12 0 33 32 41 38 9z"/>
<path d="M616 365 c-3 -8 -1 -15 4 -15 6 0 10 7 10 15 0 8 -2 15 -4 15 -2 0
-6 -7 -10 -15z"/>
<path d="M525 280 c-18 -35 -19 -94 -3 -157 10 -41 9 -47 -7 -59 -15 -11 -22
-11 -46 1 -63 33 -159 7 -107 -29 34 -24 169 -22 191 2 10 10 17 26 17 35 0
21 -2 21 45 -3 22 -11 49 -20 61 -20 55 0 70 66 32 137 -72 131 -64 123 -118
123 -45 0 -51 -3 -65 -30z m85 -25 l24 -26 -29 -24 c-34 -27 -48 -20 -47 24 1
57 16 64 52 26z m87 -98 c15 -44 8 -67 -20 -67 -22 0 -67 36 -67 54 0 17 44
57 60 54 8 -2 20 -20 27 -41z"/>
</g>
</svg>
