<?xml version="1.0" standalone="no"?>
<!DOCTYPE svg PUBLIC "-//W3C//DTD SVG 20010904//EN"
 "http://www.w3.org/TR/2001/REC-SVG-20010904/DTD/svg10.dtd">
<svg version="1.0" xmlns="http://www.w3.org/2000/svg"
 width="98.000000pt" height="67.000000pt" viewBox="0 0 98.000000 67.000000"
 preserveAspectRatio="xMidYMid meet">

<g transform="translate(0.000000,67.000000) scale(0.100000,-0.100000)"
fill="#5d4242" stroke="none">
<path d="M695 619 l-36 -32 -28 27 c-29 28 -61 32 -68 9 -3 -7 7 -18 21 -25
15 -6 29 -22 32 -35 8 -32 47 -30 87 3 27 23 37 26 81 20 53 -6 77 -20 60 -35
-5 -5 -43 -11 -84 -15 -62 -5 -81 -11 -110 -35 -44 -35 -53 -83 -19 -101 35
-20 125 -8 154 20 18 17 35 23 60 22 18 -1 36 2 40 8 4 6 -4 10 -19 10 -47 0
-21 27 42 45 18 5 22 13 22 48 0 57 -8 66 -71 82 -87 23 -123 20 -164 -16z
m45 -144 c10 -12 7 -17 -14 -26 -32 -15 -41 -8 -26 20 13 25 23 26 40 6z"/>
<path d="M417 509 c-54 -13 -117 -67 -117 -100 0 -34 26 -64 68 -78 30 -9 33
-9 27 9 -8 25 32 50 41 25 9 -22 34 -18 34 6 0 13 8 23 20 26 16 4 18 8 9 20
-10 11 -6 20 16 43 51 53 9 74 -98 49z"/>
<path d="M115 320 c3 -5 11 -10 16 -10 6 0 7 5 4 10 -3 6 -11 10 -16 10 -6 0
-7 -4 -4 -10z"/>
<path d="M151 288 c-1 -25 -44 -68 -69 -68 -5 0 -21 -9 -35 -20 -31 -24 -45
-81 -28 -116 14 -31 53 -50 76 -36 13 6 32 4 66 -8 32 -12 51 -15 55 -8 4 6
23 8 43 5 20 -3 44 -2 55 2 17 7 16 9 -8 24 -19 13 -26 26 -26 50 0 18 5 38
11 44 18 18 16 120 -3 139 -20 21 -61 12 -86 -18 -9 -11 -31 -34 -48 -50 -32
-29 -54 -84 -54 -132 0 -15 -7 -29 -15 -33 -24 -9 -55 26 -55 62 0 36 22 59
87 95 48 26 56 40 43 72 -8 22 -9 22 -9 -4z m84 -213 c0 -11 -8 -21 -17 -23
-14 -3 -18 3 -18 23 0 20 4 26 18 23 9 -2 17 -12 17 -23z"/>
<path d="M685 263 c-29 -37 -26 -53 10 -53 17 0 29 -9 40 -30 16 -31 38 -39
51 -19 4 7 20 9 40 6 22 -4 47 1 73 14 22 10 42 19 45 19 13 0 17 -62 4 -78
-12 -15 -11 -16 5 -3 31 25 21 60 -35 113 -47 44 -56 49 -93 47 -22 -2 -47 1
-55 7 -29 18 -58 10 -85 -23z"/>
</g>
</svg>
