<?xml version="1.0" standalone="no"?>
<!DOCTYPE svg PUBLIC "-//W3C//DTD SVG 20010904//EN"
 "http://www.w3.org/TR/2001/REC-SVG-20010904/DTD/svg10.dtd">
<svg version="1.0" xmlns="http://www.w3.org/2000/svg"
 width="89.000000pt" height="76.000000pt" viewBox="0 0 89.000000 76.000000"
 preserveAspectRatio="xMidYMid meet">

<g transform="translate(0.000000,76.000000) scale(0.100000,-0.100000)"
fill="#5d4242" stroke="none">
<path d="M133 742 c-36 -3 -45 -8 -63 -38 -12 -18 -25 -34 -29 -34 -4 0 -13
-10 -18 -23 -11 -24 4 -78 26 -91 7 -5 11 -45 12 -104 0 -53 6 -174 12 -269
16 -227 31 -219 43 21 l9 178 29 25 c37 31 51 19 37 -33 -5 -22 -11 -86 -12
-144 -2 -63 -8 -116 -16 -132 -20 -41 -16 -48 27 -48 40 0 40 0 40 38 0 46 34
181 55 222 28 53 39 31 52 -100 12 -122 12 -125 -9 -147 l-21 -23 50 0 50 0 1
73 c1 72 12 139 32 192 l11 28 77 -7 c42 -3 82 -12 89 -19 21 -20 27 -103 13
-163 -7 -30 -11 -56 -9 -58 2 -2 43 -7 90 -11 l87 -7 3 155 c4 175 16 210 45
138 9 -22 20 -41 24 -41 4 0 -5 32 -21 71 -16 39 -32 96 -35 125 -10 83 -52
130 -165 184 l-91 43 -192 1 c-105 1 -210 0 -233 -2z m592 -569 c-3 -24 -10
-41 -16 -38 -10 7 -12 88 -2 125 6 24 7 24 16 -10 5 -19 6 -54 2 -77z"/>
</g>
</svg>
