<?xml version="1.0" standalone="no"?>
<!DOCTYPE svg PUBLIC "-//W3C//DTD SVG 20010904//EN"
 "http://www.w3.org/TR/2001/REC-SVG-20010904/DTD/svg10.dtd">
<svg version="1.0" xmlns="http://www.w3.org/2000/svg"
 width="41.000000pt" height="59.000000pt" viewBox="0 0 41.000000 59.000000"
 preserveAspectRatio="xMidYMid meet">

<g transform="translate(0.000000,59.000000) scale(0.100000,-0.100000)"
fill="#5d4242" stroke="none">
<path d="M80 558 c-51 -35 -58 -53 -32 -81 28 -30 28 -44 -4 -106 -43 -87 -43
-161 0 -99 9 12 18 19 21 16 3 -3 8 -43 11 -89 3 -46 10 -97 15 -113 7 -23 5
-33 -7 -48 -16 -17 -16 -18 0 -18 47 0 113 25 133 50 21 26 75 49 152 65 l35
7 -25 13 c-20 11 -30 11 -59 -2 -19 -8 -41 -17 -47 -20 -10 -4 -13 11 -13 54
0 71 -21 156 -56 224 -15 31 -23 60 -20 73 8 34 -3 61 -34 79 -35 21 -31 21
-70 -5z"/>
</g>
</svg>
