<?xml version="1.0" standalone="no"?>
<!DOCTYPE svg PUBLIC "-//W3C//DTD SVG 20010904//EN"
 "http://www.w3.org/TR/2001/REC-SVG-20010904/DTD/svg10.dtd">
<svg version="1.0" xmlns="http://www.w3.org/2000/svg"
 width="46.000000pt" height="16.000000pt" viewBox="0 0 46.000000 16.000000"
 preserveAspectRatio="xMidYMid meet">

<g transform="translate(0.000000,16.000000) scale(0.100000,-0.100000)"
fill="#5d4242" stroke="none">
<path d="M156 140 c-84 -7 -91 -9 -118 -39 -16 -18 -26 -36 -24 -40 3 -5 23
-11 44 -15 22 -3 45 -13 52 -21 8 -9 20 -13 29 -9 9 3 48 10 86 15 39 5 82 11
96 14 17 4 32 0 43 -10 21 -21 39 -9 32 20 -8 33 9 40 29 13 15 -21 16 -21 13
-3 -2 10 -21 31 -43 47 -48 32 -108 39 -239 28z"/>
</g>
</svg>
