<?xml version="1.0" standalone="no"?>
<!DOCTYPE svg PUBLIC "-//W3C//DTD SVG 20010904//EN"
 "http://www.w3.org/TR/2001/REC-SVG-20010904/DTD/svg10.dtd">
<svg version="1.0" xmlns="http://www.w3.org/2000/svg"
 width="49.000000pt" height="37.000000pt" viewBox="0 0 49.000000 37.000000"
 preserveAspectRatio="xMidYMid meet">

<g transform="translate(0.000000,37.000000) scale(0.100000,-0.100000)"
fill="#5d4242" stroke="none">
<path d="M110 323 c-67 -34 -106 -96 -89 -141 6 -15 8 -52 4 -84 -6 -52 -5
-58 11 -58 10 0 31 12 46 27 30 29 37 21 12 -15 -14 -20 -14 -22 3 -22 10 0
29 19 45 45 42 70 77 57 78 -28 0 -45 24 -27 31 23 4 28 14 50 28 62 28 22 35
22 55 2 20 -20 20 -53 0 -82 -14 -20 -14 -22 1 -22 8 0 19 10 24 23 8 19 51
67 51 56 0 -2 -4 -19 -9 -37 -8 -25 -7 -32 4 -32 20 0 25 12 29 77 2 33 11 74
20 92 14 26 15 38 6 66 -15 44 -22 48 -100 56 -196 22 -191 22 -250 -8z"/>
</g>
</svg>
