<?xml version="1.0" standalone="no"?>
<!DOCTYPE svg PUBLIC "-//W3C//DTD SVG 20010904//EN"
 "http://www.w3.org/TR/2001/REC-SVG-20010904/DTD/svg10.dtd">
<svg version="1.0" xmlns="http://www.w3.org/2000/svg"
 width="68.000000pt" height="47.000000pt" viewBox="0 0 68.000000 47.000000"
 preserveAspectRatio="xMidYMid meet">

<g transform="translate(0.000000,47.000000) scale(0.100000,-0.100000)"
fill="#5d4242" stroke="none">
<path d="M389 411 c-60 -30 -94 -40 -174 -49 -81 -10 -108 -18 -147 -43 -45
-29 -48 -34 -48 -73 0 -25 8 -51 20 -66 14 -18 20 -41 20 -82 0 -38 5 -62 16
-72 23 -24 26 -20 18 29 -8 53 8 60 46 20 28 -30 45 -33 30 -5 -6 12 -10 38
-8 58 l3 37 79 8 c43 4 81 6 83 3 3 -3 8 -32 12 -66 9 -74 20 -88 57 -71 19 8
24 16 18 29 -4 9 -9 32 -12 50 -7 51 50 155 108 198 98 72 150 117 145 125 -3
4 -47 8 -99 8 -87 0 -97 -2 -167 -38z"/>
</g>
</svg>
