<?xml version="1.0" standalone="no"?>
<!DOCTYPE svg PUBLIC "-//W3C//DTD SVG 20010904//EN"
 "http://www.w3.org/TR/2001/REC-SVG-20010904/DTD/svg10.dtd">
<svg version="1.0" xmlns="http://www.w3.org/2000/svg"
 width="52.000000pt" height="36.000000pt" viewBox="0 0 52.000000 36.000000"
 preserveAspectRatio="xMidYMid meet">

<g transform="translate(0.000000,36.000000) scale(0.100000,-0.100000)"
fill="#5d4242" stroke="none">
<path d="M368 319 c-35 -18 -41 -18 -100 -3 -106 27 -191 2 -233 -69 -20 -34
-14 -86 15 -112 14 -12 17 -25 13 -46 -6 -33 19 -79 44 -79 14 0 14 2 -2 20
-28 30 -6 46 27 20 37 -29 56 -25 27 6 l-24 26 33 29 c18 16 41 29 51 29 29 0
60 -32 63 -65 3 -35 15 -55 34 -55 10 0 12 8 8 30 -10 46 3 76 48 120 34 32
49 40 79 40 44 0 65 20 50 48 -10 18 -84 83 -92 81 -2 -1 -21 -10 -41 -20z"/>
</g>
</svg>
