<?xml version="1.0" standalone="no"?>
<!DOCTYPE svg PUBLIC "-//W3C//DTD SVG 20010904//EN"
 "http://www.w3.org/TR/2001/REC-SVG-20010904/DTD/svg10.dtd">
<svg version="1.0" xmlns="http://www.w3.org/2000/svg"
 width="47.000000pt" height="46.000000pt" viewBox="0 0 47.000000 46.000000"
 preserveAspectRatio="xMidYMid meet">

<g transform="translate(0.000000,46.000000) scale(0.100000,-0.100000)"
fill="#5d4242" stroke="none">
<path d="M56 429 c-27 -21 -51 -67 -41 -77 2 -3 17 7 31 21 25 26 35 30 51 25
13 -5 2 -132 -13 -149 -16 -18 -19 -65 -3 -74 5 -4 18 0 28 9 16 15 20 13 49
-16 31 -30 32 -32 15 -50 -14 -16 -15 -22 -5 -36 7 -9 16 -27 22 -39 11 -27
23 -29 40 -8 10 13 9 19 -5 35 -17 19 -17 22 -3 37 15 14 20 14 62 -7 26 -12
73 -24 106 -27 55 -5 60 -4 60 14 0 19 -41 57 -102 96 -37 23 -37 47 0 47 16
0 37 6 48 14 17 13 13 14 -41 14 -33 0 -65 -4 -71 -9 -6 -5 -17 0 -27 11 -16
19 -16 20 8 20 28 0 43 19 24 31 -8 4 -37 11 -66 15 -48 6 -53 9 -53 31 0 31
-25 79 -45 87 -27 10 -41 7 -69 -15z"/>
</g>
</svg>
