<?xml version="1.0" standalone="no"?>
<!DOCTYPE svg PUBLIC "-//W3C//DTD SVG 20010904//EN"
 "http://www.w3.org/TR/2001/REC-SVG-20010904/DTD/svg10.dtd">
<svg version="1.0" xmlns="http://www.w3.org/2000/svg"
 width="63.000000pt" height="21.000000pt" viewBox="0 0 63.000000 21.000000"
 preserveAspectRatio="xMidYMid meet">

<g transform="translate(0.000000,21.000000) scale(0.100000,-0.100000)"
fill="#5d4242" stroke="none">
<path d="M17 183 c-13 -12 -7 -21 28 -42 49 -29 63 -62 41 -96 -22 -34 -16
-41 15 -16 30 24 47 27 78 17 18 -6 26 -4 33 8 10 18 63 22 74 5 4 -8 0 -9
-15 -4 -12 3 -21 2 -21 -4 0 -5 19 -11 43 -13 27 -2 41 -7 40 -15 -5 -21 24
-15 39 9 15 22 15 22 54 3 37 -17 197 -36 183 -21 -4 4 -30 9 -58 11 -57 3
-92 25 -145 87 -69 80 -111 93 -202 62 -42 -14 -49 -14 -85 0 -41 17 -91 21
-102 9z"/>
</g>
</svg>
