<?xml version="1.0" standalone="no"?>
<!DOCTYPE svg PUBLIC "-//W3C//DTD SVG 20010904//EN"
 "http://www.w3.org/TR/2001/REC-SVG-20010904/DTD/svg10.dtd">
<svg version="1.0" xmlns="http://www.w3.org/2000/svg"
 width="92.000000pt" height="152.000000pt" viewBox="0 0 92.000000 152.000000"
 preserveAspectRatio="xMidYMid meet">

<g transform="translate(0.000000,152.000000) scale(0.100000,-0.100000)"
fill="#5d4242" stroke="none">
<path d="M331 1478 c-32 -14 -40 -23 -32 -31 20 -20 11 -29 -21 -23 -18 4 -48
10 -67 13 l-34 6 6 -61 6 -60 -74 -43 c-41 -23 -75 -49 -75 -56 0 -19 14 -16
36 8 21 23 166 99 228 119 54 17 116 -2 116 -37 0 -12 5 -23 10 -23 6 0 10 6
10 13 0 22 32 45 78 56 51 11 87 38 73 55 -6 7 -37 18 -71 25 -34 8 -77 24
-96 37 -41 28 -37 28 -93 2z"/>
<path d="M349 1247 c-14 -12 -55 -39 -90 -61 l-63 -39 23 -18 c13 -10 42 -24
64 -30 23 -7 49 -20 59 -30 22 -25 48 -24 48 1 0 21 13 25 63 21 23 -2 27 2
27 23 0 30 10 32 50 11 17 -9 30 -14 31 -13 6 20 4 98 -3 98 -5 0 -23 -7 -39
-16 -34 -17 -59 -13 -59 10 0 16 -56 66 -73 66 -7 0 -24 -11 -38 -23z"/>
<path d="M120 649 c-66 -31 -100 -55 -100 -71 0 -5 23 -20 51 -32 28 -13 61
-34 74 -46 22 -21 25 -21 40 -6 10 10 33 16 58 16 23 0 54 6 68 14 14 7 38 16
55 20 27 7 43 21 44 38 0 4 -15 23 -34 43 -28 29 -45 37 -93 45 -84 14 -91 13
-163 -21z"/>
<path d="M470 273 c-14 -3 -36 -14 -48 -26 -20 -19 -23 -29 -19 -70 5 -61 33
-100 78 -109 82 -18 177 -40 209 -48 52 -14 184 -12 198 2 19 19 14 32 -21 52
-68 39 -162 66 -252 72 -91 7 -155 24 -155 43 0 6 18 20 40 31 35 18 39 23 30
40 -11 20 -15 21 -60 13z"/>
</g>
</svg>
