<?xml version="1.0" standalone="no"?>
<!DOCTYPE svg PUBLIC "-//W3C//DTD SVG 20010904//EN"
 "http://www.w3.org/TR/2001/REC-SVG-20010904/DTD/svg10.dtd">
<svg version="1.0" xmlns="http://www.w3.org/2000/svg"
 width="47.000000pt" height="53.000000pt" viewBox="0 0 47.000000 53.000000"
 preserveAspectRatio="xMidYMid meet">

<g transform="translate(0.000000,53.000000) scale(0.100000,-0.100000)"
fill="#5d4242" stroke="none">
<path d="M93 503 c-7 -2 -13 -20 -13 -39 0 -27 -8 -41 -35 -65 -42 -37 -47
-83 -16 -139 55 -98 81 -158 81 -185 0 -47 10 -53 89 -60 64 -5 72 -4 62 9 -7
8 -11 34 -9 58 l4 43 13 -30 c19 -45 41 -65 73 -65 27 0 28 1 14 23 -21 32 -6
55 26 39 13 -6 34 -12 48 -14 22 -3 25 1 28 33 3 32 -2 40 -40 71 -66 54 -138
95 -189 108 -41 10 -52 9 -94 -9 -26 -12 -49 -21 -51 -21 -2 0 -6 16 -10 35
-8 43 8 64 72 94 49 23 64 56 45 97 -8 19 -18 24 -48 23 -21 0 -44 -3 -50 -6z
m97 -443 c0 -13 -7 -20 -20 -20 -13 0 -20 7 -20 20 0 13 7 20 20 20 13 0 20
-7 20 -20z"/>
</g>
</svg>
