<?xml version="1.0" standalone="no"?>
<!DOCTYPE svg PUBLIC "-//W3C//DTD SVG 20010904//EN"
 "http://www.w3.org/TR/2001/REC-SVG-20010904/DTD/svg10.dtd">
<svg version="1.0" xmlns="http://www.w3.org/2000/svg"
 width="115.000000pt" height="91.000000pt" viewBox="0 0 115.000000 91.000000"
 preserveAspectRatio="xMidYMid meet">

<g transform="translate(0.000000,91.000000) scale(0.100000,-0.100000)"
fill="#5d4242" stroke="none">
<path d="M910 880 c0 -22 49 -59 91 -70 62 -17 74 -24 77 -49 4 -28 -24 -61
-53 -61 -11 0 -42 14 -68 30 -26 17 -51 30 -54 30 -4 0 -40 17 -81 37 -72 35
-76 36 -116 23 -26 -9 -94 -14 -191 -15 -135 -1 -158 -3 -233 -28 -150 -50
-259 -160 -264 -268 -1 -24 -1 -82 1 -129 l3 -85 13 50 c7 28 15 43 18 35 42
-117 61 -203 61 -272 0 -88 -3 -86 112 -80 l61 4 -1 76 c-1 57 5 96 23 149 26
76 33 83 100 83 l34 0 -6 -42 c-3 -24 -20 -87 -38 -140 -17 -54 -29 -105 -25
-113 4 -10 19 -15 50 -15 45 0 45 1 40 28 -5 22 6 52 44 124 27 53 52 106 55
118 11 44 25 8 32 -82 4 -51 13 -108 21 -127 8 -18 14 -42 14 -52 0 -21 54
-35 89 -24 27 8 26 16 -3 48 -31 34 -42 102 -27 164 7 25 11 85 10 131 -2 83
-1 86 27 109 37 31 66 43 133 54 38 6 59 5 68 -3 22 -18 23 -5 3 40 -10 23
-15 44 -11 46 4 3 28 -5 53 -18 45 -23 133 -41 123 -26 -3 4 -21 11 -40 14
-43 8 -45 24 -5 37 43 16 90 84 90 131 0 53 -33 82 -112 98 -35 7 -72 21 -84
31 -23 21 -34 24 -34 9z m-710 -784 c-7 -7 -10 18 -10 80 0 118 14 132 18 18
2 -51 -1 -91 -8 -98z"/>
</g>
</svg>
