<?xml version="1.0" standalone="no"?>
<!DOCTYPE svg PUBLIC "-//W3C//DTD SVG 20010904//EN"
 "http://www.w3.org/TR/2001/REC-SVG-20010904/DTD/svg10.dtd">
<svg version="1.0" xmlns="http://www.w3.org/2000/svg"
 width="54.000000pt" height="60.000000pt" viewBox="0 0 54.000000 60.000000"
 preserveAspectRatio="xMidYMid meet">

<g transform="translate(0.000000,60.000000) scale(0.100000,-0.100000)"
fill="#5d4242" stroke="none">
<path d="M136 578 c-10 -6 -40 -7 -72 -3 l-54 6 0 -30 c0 -17 5 -63 11 -104 9
-63 17 -83 55 -133 44 -58 55 -98 32 -107 -7 -3 9 -6 35 -6 47 -1 48 -1 67 44
l20 46 30 -16 c33 -17 38 -32 15 -41 -8 -4 -15 -10 -15 -14 0 -12 58 -30 96
-30 27 0 36 6 50 32 l16 31 19 -24 c24 -31 39 -83 39 -137 0 -45 14 -82 30
-82 15 0 12 153 -5 199 -27 77 -93 178 -132 203 -33 20 -50 23 -135 22 -54 0
-98 2 -98 6 0 4 7 14 16 21 12 10 15 25 11 67 -3 29 -7 55 -9 57 -2 2 -11 -1
-22 -7z"/>
</g>
</svg>
