<?xml version="1.0" standalone="no"?>
<!DOCTYPE svg PUBLIC "-//W3C//DTD SVG 20010904//EN"
 "http://www.w3.org/TR/2001/REC-SVG-20010904/DTD/svg10.dtd">
<svg version="1.0" xmlns="http://www.w3.org/2000/svg"
 width="67.000000pt" height="93.000000pt" viewBox="0 0 67.000000 93.000000"
 preserveAspectRatio="xMidYMid meet">

<g transform="translate(0.000000,93.000000) scale(0.100000,-0.100000)"
fill="#5d4242" stroke="none">
<path d="M70 884 c-6 -14 -10 -32 -10 -39 0 -8 -8 -19 -18 -24 -21 -11 -27
-62 -24 -192 2 -76 32 -221 70 -334 11 -33 23 -95 27 -138 7 -73 6 -80 -16
-103 l-22 -24 41 0 c49 0 50 2 54 127 3 84 12 109 29 83 10 -16 6 -158 -6
-202 -7 -25 -5 -28 17 -28 40 0 48 18 48 110 0 89 14 133 42 138 10 2 39 -17
67 -43 54 -50 81 -118 61 -155 -17 -32 -12 -35 58 -35 l67 0 3 33 c2 19 -1 47
-7 64 -15 43 -7 46 34 9 20 -17 42 -31 50 -31 25 0 17 53 -16 103 -21 33 -32
63 -36 104 -8 73 -71 211 -112 245 -33 28 -94 53 -154 63 -41 7 -74 43 -63 71
3 9 -2 28 -13 42 -10 15 -21 36 -25 47 -8 26 -109 135 -125 135 -6 0 -16 -12
-21 -26z"/>
</g>
</svg>
