<?xml version="1.0" standalone="no"?>
<!DOCTYPE svg PUBLIC "-//W3C//DTD SVG 20010904//EN"
 "http://www.w3.org/TR/2001/REC-SVG-20010904/DTD/svg10.dtd">
<svg version="1.0" xmlns="http://www.w3.org/2000/svg"
 width="81.000000pt" height="103.000000pt" viewBox="0 0 81.000000 103.000000"
 preserveAspectRatio="xMidYMid meet">

<g transform="translate(0.000000,103.000000) scale(0.100000,-0.100000)"
fill="#5d4242" stroke="none">
<path d="M255 995 c-22 -9 -59 -35 -83 -58 -39 -38 -147 -183 -159 -214 -3 -6
10 -19 27 -28 32 -17 32 -17 26 -74 -5 -45 -3 -61 8 -70 19 -16 36 13 36 63 0
65 24 38 59 -67 23 -70 44 -114 68 -140 31 -34 33 -42 33 -105 0 -92 -17 -198
-36 -226 -9 -15 -11 -26 -5 -30 20 -12 40 40 58 151 10 62 22 113 27 113 12 0
-3 -197 -20 -245 -7 -21 -11 -42 -8 -45 12 -11 44 43 44 74 0 38 32 167 53
219 9 20 22 37 29 37 7 1 34 3 60 5 46 4 47 4 84 -48 44 -60 48 -102 19 -168
-10 -21 -15 -42 -11 -46 10 -10 20 9 47 88 21 61 22 72 10 101 -22 55 -20 73
12 76 25 3 30 -2 44 -37 10 -26 28 -48 49 -61 30 -17 34 -24 34 -63 0 -24 -5
-59 -11 -76 -8 -23 -8 -36 -1 -43 13 -13 16 -1 32 116 10 78 10 80 -14 105
-27 28 -27 36 0 184 8 45 -13 72 -86 115 -41 25 -55 27 -180 30 -74 2 -147 8
-162 13 -26 11 -55 47 -99 125 l-23 41 29 34 c27 33 28 34 7 37 -29 4 -28 16
4 41 36 28 75 27 104 -4 19 -20 22 -31 17 -67 -5 -40 -5 -42 10 -23 11 15 13
35 9 83 l-5 63 47 -6 c102 -13 153 -57 172 -146 l9 -44 -3 52 c-4 66 -34 108
-107 148 -44 24 -68 29 -134 32 -54 2 -93 -2 -120 -12z"/>
</g>
</svg>
