<?xml version="1.0" standalone="no"?>
<!DOCTYPE svg PUBLIC "-//W3C//DTD SVG 20010904//EN"
 "http://www.w3.org/TR/2001/REC-SVG-20010904/DTD/svg10.dtd">
<svg version="1.0" xmlns="http://www.w3.org/2000/svg"
 width="87.000000pt" height="79.000000pt" viewBox="0 0 87.000000 79.000000"
 preserveAspectRatio="xMidYMid meet">

<g transform="translate(0.000000,79.000000) scale(0.100000,-0.100000)"
fill="#5d4242" stroke="none">
<path d="M806 758 c-25 -14 -103 -17 -143 -4 -23 7 -36 7 -43 0 -16 -16 5 -64
28 -64 39 0 54 -40 28 -75 -11 -16 -17 -17 -42 -7 -28 11 -91 23 -301 58 -133
23 -195 11 -259 -48 -35 -33 -44 -48 -51 -91 -9 -54 9 -179 29 -205 8 -9 6
-18 -7 -32 -14 -15 -16 -29 -11 -68 9 -72 50 -205 64 -210 16 -5 15 21 -3 91
-8 32 -15 72 -15 89 0 27 2 29 16 17 9 -7 33 -47 54 -88 21 -42 45 -85 54 -96
15 -20 15 -20 16 3 0 12 -17 59 -37 103 -36 80 -36 81 -19 113 9 18 34 51 54
75 l38 44 68 -17 c37 -10 87 -16 109 -14 l42 3 -4 -80 c-2 -44 -7 -102 -11
-128 -8 -56 -3 -94 15 -101 10 -4 12 4 8 30 -12 71 56 284 90 284 20 0 65
-122 79 -218 7 -45 18 -81 23 -80 6 2 9 12 8 23 -1 11 -5 81 -9 156 l-7 136
51 89 c41 70 53 102 57 149 8 72 22 105 46 105 19 0 39 28 39 54 0 18 -26 20
-54 4z"/>
</g>
</svg>
