<?xml version="1.0" standalone="no"?>
<!DOCTYPE svg PUBLIC "-//W3C//DTD SVG 20010904//EN"
 "http://www.w3.org/TR/2001/REC-SVG-20010904/DTD/svg10.dtd">
<svg version="1.0" xmlns="http://www.w3.org/2000/svg"
 width="62.000000pt" height="63.000000pt" viewBox="0 0 62.000000 63.000000"
 preserveAspectRatio="xMidYMid meet">

<g transform="translate(0.000000,63.000000) scale(0.100000,-0.100000)"
fill="#5d4242" stroke="none">
<path d="M70 566 c0 -25 -3 -27 -25 -22 -35 9 -33 -19 3 -36 19 -10 28 -22 30
-45 3 -31 81 -122 144 -168 l27 -20 -18 -110 c-11 -60 -23 -119 -27 -130 -7
-17 -5 -18 8 -8 8 7 20 45 28 85 14 84 36 142 48 134 18 -11 34 -95 30 -160
-1 -36 0 -66 4 -66 4 0 9 59 10 132 l3 132 50 18 c28 10 55 16 61 14 17 -7 74
-110 74 -135 0 -12 -13 -51 -29 -86 -17 -36 -26 -65 -22 -65 12 0 60 104 74
160 11 41 14 45 26 33 9 -10 13 -42 13 -101 l0 -87 13 100 13 99 -29 35 c-35
42 -35 53 -8 97 25 41 22 71 -11 95 -55 41 -122 35 -310 -26 -59 -20 -57 -20
-76 17 -16 31 -16 32 10 53 36 28 34 46 -4 39 -28 -6 -30 -4 -30 22 l-1 29
-14 -33 c-16 -36 -38 -39 -43 -6 -6 33 -22 40 -22 10z"/>
</g>
</svg>
