<?xml version="1.0" standalone="no"?>
<!DOCTYPE svg PUBLIC "-//W3C//DTD SVG 20010904//EN"
 "http://www.w3.org/TR/2001/REC-SVG-20010904/DTD/svg10.dtd">
<svg version="1.0" xmlns="http://www.w3.org/2000/svg"
 width="107.000000pt" height="101.000000pt" viewBox="0 0 107.000000 101.000000"
 preserveAspectRatio="xMidYMid meet">

<g transform="translate(0.000000,101.000000) scale(0.100000,-0.100000)"
fill="#5d4242" stroke="none">
<path d="M20 984 c0 -30 33 -85 59 -98 14 -8 45 -20 69 -27 23 -7 48 -19 54
-27 11 -13 7 -14 -30 -7 -39 6 -42 5 -42 -15 0 -16 11 -26 40 -38 l40 -17 0
-65 c2 -135 14 -197 45 -230 16 -16 38 -33 49 -36 12 -3 42 -15 69 -26 l47
-20 0 -58 c0 -75 -27 -229 -45 -257 -16 -24 -7 -37 19 -27 9 3 20 29 27 62 11
55 72 202 83 202 9 0 56 -109 65 -150 4 -20 4 -46 0 -58 -7 -18 -5 -22 11 -22
25 0 26 41 6 138 -8 37 -17 91 -21 120 l-6 52 68 0 c37 1 98 7 135 14 37 7 71
10 77 7 10 -7 41 -118 41 -149 0 -12 -22 -50 -49 -86 -47 -62 -48 -65 -28 -72
12 -4 23 -2 25 4 6 19 64 102 92 132 35 37 48 38 56 3 6 -24 -5 -152 -17 -193
-3 -10 4 -16 22 -18 27 -3 27 -2 33 75 3 43 9 102 12 131 5 46 3 58 -20 92
-14 22 -26 44 -26 50 0 6 18 45 40 86 49 92 50 114 8 150 -72 60 -105 67 -333
76 -209 7 -315 16 -315 25 0 18 25 42 49 48 29 6 59 31 49 41 -8 7 -61 7 -85
-1 -35 -11 -29 14 16 60 41 42 64 116 42 130 -7 3 -11 -2 -11 -14 0 -25 -20
-71 -32 -71 -4 0 -8 12 -8 28 0 21 -2 24 -10 12 -5 -8 -10 -27 -10 -41 0 -15
-12 -37 -29 -53 -23 -22 -36 -27 -67 -24 -36 3 -42 8 -83 71 -24 37 -46 65
-48 63 -3 -3 0 -21 7 -41 15 -47 9 -52 -26 -22 -16 13 -37 27 -47 30 -9 4 -27
22 -38 42 -23 39 -29 43 -29 19z"/>
</g>
</svg>
