<?xml version="1.0" standalone="no"?>
<!DOCTYPE svg PUBLIC "-//W3C//DTD SVG 20010904//EN"
 "http://www.w3.org/TR/2001/REC-SVG-20010904/DTD/svg10.dtd">
<svg version="1.0" xmlns="http://www.w3.org/2000/svg"
 width="88.000000pt" height="75.000000pt" viewBox="0 0 88.000000 75.000000"
 preserveAspectRatio="xMidYMid meet">

<g transform="translate(0.000000,75.000000) scale(0.100000,-0.100000)"
fill="#5d4242" stroke="none">
<path d="M65 696 c-9 -21 -23 -77 -30 -125 l-15 -86 5 91 c3 51 9 105 15 120
9 27 9 27 -5 10 -20 -26 -28 -92 -23 -194 5 -101 24 -150 112 -282 31 -46 56
-92 56 -102 0 -20 35 -42 56 -34 10 4 14 22 14 63 0 61 30 160 52 175 25 15
58 9 68 -15 18 -45 42 -217 35 -257 -7 -41 3 -52 24 -26 7 9 9 57 6 152 -3 89
-2 130 4 114 25 -70 43 -140 48 -187 3 -29 10 -53 16 -53 6 0 7 52 2 144 l-7
144 48 6 c27 4 66 10 87 15 43 10 51 2 82 -73 15 -36 15 -44 0 -108 -20 -81
-14 -138 15 -138 10 0 22 5 25 10 12 19 36 172 42 262 5 86 23 115 23 39 0
-22 6 -44 15 -51 8 -7 15 -11 15 -9 0 2 1 72 3 156 l2 152 -30 31 c-51 54 -80
64 -154 54 -37 -4 -115 -7 -175 -5 l-108 2 -42 -43 c-22 -24 -58 -77 -78 -118
-56 -111 -122 -215 -141 -218 -42 -8 -85 146 -74 263 3 34 13 81 21 105 19 55
12 66 -9 16z m-28 -248 c-3 -7 -5 -2 -5 12 0 14 2 19 5 13 2 -7 2 -19 0 -25z"/>
</g>
</svg>
