<?xml version="1.0" standalone="no"?>
<!DOCTYPE svg PUBLIC "-//W3C//DTD SVG 20010904//EN"
 "http://www.w3.org/TR/2001/REC-SVG-20010904/DTD/svg10.dtd">
<svg version="1.0" xmlns="http://www.w3.org/2000/svg"
 width="91.000000pt" height="106.000000pt" viewBox="0 0 91.000000 106.000000"
 preserveAspectRatio="xMidYMid meet">

<g transform="translate(0.000000,106.000000) scale(0.100000,-0.100000)"
fill="#5d4242" stroke="none">
<path d="M120 1026 c0 -10 5 -36 12 -57 10 -36 9 -41 -12 -64 -21 -22 -22 -30
-16 -97 l7 -73 -50 -39 c-28 -21 -51 -44 -51 -52 0 -16 31 -34 58 -34 27 0 69
-52 82 -101 10 -35 96 -149 143 -188 10 -7 17 -21 17 -30 0 -9 7 -36 16 -61 9
-25 17 -82 17 -127 1 -46 5 -83 8 -83 22 0 31 36 29 112 -2 46 -2 94 -1 108 2
23 3 23 18 -10 9 -21 16 -66 17 -112 1 -67 3 -78 19 -78 16 0 17 10 11 125 -6
114 -6 125 11 131 10 4 30 3 46 -3 21 -8 30 -7 41 3 7 7 27 16 45 20 28 6 37
0 94 -54 61 -60 62 -61 57 -109 -3 -29 -16 -65 -32 -91 -15 -24 -25 -46 -22
-50 12 -12 45 32 65 89 12 32 33 71 45 86 l23 27 18 -27 c22 -34 38 -104 30
-134 -4 -18 -1 -23 15 -23 25 0 26 29 5 90 -8 23 -15 58 -15 76 0 27 -5 37
-25 46 -18 8 -25 19 -25 39 0 15 -4 30 -9 34 -6 3 -10 41 -9 84 0 89 -10 114
-55 141 -27 17 -51 20 -157 20 -78 0 -146 6 -180 15 -30 8 -71 15 -92 15 -33
0 -38 4 -57 43 -26 53 -26 57 -2 57 30 0 65 34 58 55 -7 17 -19 17 -79 -1 -14
-4 -18 1 -19 18 0 13 -6 39 -13 58 -12 31 -11 39 7 71 18 32 20 41 9 75 -7 22
-16 46 -21 54 -18 26 -20 5 -5 -38 10 -32 11 -48 4 -63 -12 -22 -30 -17 -30 9
0 24 -49 121 -50 98z m36 -191 c15 -37 19 -85 6 -69 -8 8 -32 83 -32 98 0 16
12 3 26 -29z"/>
</g>
</svg>
