<?xml version="1.0" standalone="no"?>
<!DOCTYPE svg PUBLIC "-//W3C//DTD SVG 20010904//EN"
 "http://www.w3.org/TR/2001/REC-SVG-20010904/DTD/svg10.dtd">
<svg version="1.0" xmlns="http://www.w3.org/2000/svg"
 width="80.000000pt" height="93.000000pt" viewBox="0 0 80.000000 93.000000"
 preserveAspectRatio="xMidYMid meet">

<g transform="translate(0.000000,93.000000) scale(0.100000,-0.100000)"
fill="#5d4242" stroke="none">
<path d="M493 909 c-28 -10 -29 -39 -7 -115 8 -29 14 -70 12 -91 -3 -38 -3
-38 -43 -35 -22 2 -62 10 -89 18 -67 19 -112 18 -182 -6 -59 -20 -108 -58
-125 -95 -6 -11 -17 -31 -25 -45 -11 -19 -14 -47 -11 -111 l3 -87 55 -50 c41
-39 64 -53 97 -58 48 -7 67 7 78 58 7 30 42 44 62 24 21 -21 20 -245 -1 -260
-12 -10 -12 -13 -1 -24 8 -7 14 -8 14 -2 0 5 10 10 22 10 17 0 19 3 10 12 -14
14 -15 107 -2 166 7 27 7 56 2 76 -14 48 1 76 39 76 26 0 30 -3 23 -17 -5 -10
-9 -74 -9 -142 0 -127 4 -141 41 -127 13 5 13 9 -5 32 -30 39 -30 171 0 205
l20 24 -5 -26 c-5 -25 -3 -27 36 -33 23 -4 48 -12 56 -19 19 -15 40 -20 87
-18 57 1 82 31 100 120 9 40 22 85 29 100 15 29 11 77 -9 101 -7 8 -15 24 -17
35 -2 15 -13 21 -42 25 -33 4 -41 10 -50 37 -13 38 -26 53 -26 30 0 -9 -7 -17
-15 -17 -8 0 -15 9 -15 19 0 14 -5 18 -19 14 -12 -3 -17 -11 -14 -19 3 -8 0
-14 -5 -14 -6 0 -14 17 -17 38 -4 20 -11 50 -16 66 -5 16 -9 42 -9 57 0 23 5
29 21 29 24 0 21 18 -7 36 -12 8 -27 9 -41 3z"/>
</g>
</svg>
