<?xml version="1.0" standalone="no"?>
<!DOCTYPE svg PUBLIC "-//W3C//DTD SVG 20010904//EN"
 "http://www.w3.org/TR/2001/REC-SVG-20010904/DTD/svg10.dtd">
<svg version="1.0" xmlns="http://www.w3.org/2000/svg"
 width="77.000000pt" height="69.000000pt" viewBox="0 0 77.000000 69.000000"
 preserveAspectRatio="xMidYMid meet">

<g transform="translate(0.000000,69.000000) scale(0.100000,-0.100000)"
fill="#5d4242" stroke="none">
<path d="M17 656 c-3 -7 -1 -18 5 -24 5 -5 11 -50 12 -99 2 -129 20 -160 112
-189 69 -22 69 -22 66 -55 -2 -19 -1 -52 3 -74 5 -38 9 -42 60 -63 31 -12 69
-22 85 -22 24 0 35 -8 54 -39 25 -39 71 -81 88 -81 5 0 -2 14 -16 31 -14 17
-26 41 -26 53 0 22 -47 97 -69 111 -17 10 -13 50 9 78 21 27 20 27 146 10 39
-5 43 -3 76 39 54 66 129 188 123 199 -11 16 -34 10 -46 -13 -7 -13 -37 -49
-67 -80 -50 -52 -59 -58 -96 -58 -65 0 -114 18 -133 48 -32 50 -48 53 -93 16
-27 -23 -37 -26 -78 -21 -84 10 -99 21 -132 91 -16 36 -32 78 -36 93 -12 55
-16 63 -29 63 -7 0 -15 -6 -18 -14z"/>
</g>
</svg>
