<?xml version="1.0" standalone="no"?>
<!DOCTYPE svg PUBLIC "-//W3C//DTD SVG 20010904//EN"
 "http://www.w3.org/TR/2001/REC-SVG-20010904/DTD/svg10.dtd">
<svg version="1.0" xmlns="http://www.w3.org/2000/svg"
 width="71.000000pt" height="127.000000pt" viewBox="0 0 71.000000 127.000000"
 preserveAspectRatio="xMidYMid meet">

<g transform="translate(0.000000,127.000000) scale(0.100000,-0.100000)"
fill="#5d4242" stroke="none">
<path d="M151 1224 c-19 -72 -41 -242 -35 -273 5 -24 3 -31 -10 -31 -9 0 -16
-6 -16 -14 0 -7 -11 -21 -24 -29 -31 -21 -62 -85 -47 -100 6 -6 34 -11 63 -12
49 0 53 -2 84 -45 46 -62 70 -109 78 -151 4 -21 15 -48 25 -60 22 -29 47 -243
37 -325 -6 -49 -4 -54 14 -54 19 0 20 6 20 121 0 100 12 201 26 218 2 2 14 -9
26 -24 27 -33 52 -98 81 -207 11 -43 24 -75 28 -72 14 8 11 52 -6 83 -8 16
-18 55 -24 87 -5 33 -12 71 -16 87 -5 18 -3 27 4 27 20 0 59 -52 97 -130 35
-70 37 -81 38 -170 1 -52 -3 -103 -8 -112 -6 -14 -4 -18 13 -18 12 0 29 4 39
9 9 5 25 12 35 15 18 6 18 15 10 159 -8 143 -8 271 -1 423 l3 66 -44 39 c-50
45 -92 59 -177 59 -44 0 -73 7 -110 25 -68 34 -124 82 -125 108 0 12 -3 16 -6
10 -2 -7 -11 -13 -19 -13 -14 0 -17 22 -19 120 0 37 9 121 20 180 l6 35 -15
-26 c-14 -24 -30 -133 -39 -259 -2 -25 -4 5 -5 66 -1 61 3 135 8 164 12 63 6
79 -9 24z m460 -781 c32 -79 61 -335 40 -348 -7 -4 -15 -4 -18 -1 -3 3 -7 57
-9 121 -2 74 -9 125 -18 143 -12 23 -21 77 -17 105 2 15 12 6 22 -20z"/>
</g>
</svg>
