<?xml version="1.0" standalone="no"?>
<!DOCTYPE svg PUBLIC "-//W3C//DTD SVG 20010904//EN"
 "http://www.w3.org/TR/2001/REC-SVG-20010904/DTD/svg10.dtd">
<svg version="1.0" xmlns="http://www.w3.org/2000/svg"
 width="48.000000pt" height="91.000000pt" viewBox="0 0 48.000000 91.000000"
 preserveAspectRatio="xMidYMid meet">

<g transform="translate(0.000000,91.000000) scale(0.100000,-0.100000)"
fill="#5d4242" stroke="none">
<path d="M212 877 c-7 -8 -9 -17 -5 -20 3 -4 -32 -46 -79 -95 -47 -48 -91 -98
-98 -112 -10 -18 -14 -70 -14 -176 -1 -176 4 -190 66 -180 l38 6 0 -94 c0 -82
-3 -99 -26 -140 -14 -25 -21 -46 -16 -46 5 0 15 14 22 30 14 35 30 38 48 10
16 -26 32 -26 25 0 -5 17 0 20 30 20 19 0 37 5 39 12 3 8 11 7 28 -5 30 -21
65 -24 38 -3 -10 7 -18 20 -18 29 0 9 -10 17 -22 19 -18 2 -30 20 -55 83 -18
44 -33 98 -33 121 0 50 18 104 34 104 7 0 25 13 40 29 26 27 41 59 78 169 6
17 16 32 23 32 6 0 31 -20 55 -45 43 -44 60 -54 60 -37 0 5 -23 47 -51 93 -29
46 -66 111 -83 144 -30 57 -33 60 -72 63 -26 2 -45 -2 -52 -11z m-19 -672 c36
-117 34 -129 -23 -100 -29 15 -30 18 -30 89 0 40 3 76 7 80 11 11 30 -16 46
-69z"/>
</g>
</svg>
