<?xml version="1.0" standalone="no"?>
<!DOCTYPE svg PUBLIC "-//W3C//DTD SVG 20010904//EN"
 "http://www.w3.org/TR/2001/REC-SVG-20010904/DTD/svg10.dtd">
<svg version="1.0" xmlns="http://www.w3.org/2000/svg"
 width="101.000000pt" height="75.000000pt" viewBox="0 0 101.000000 75.000000"
 preserveAspectRatio="xMidYMid meet">

<g transform="translate(0.000000,75.000000) scale(0.100000,-0.100000)"
fill="#5d4242" stroke="none">
<path d="M480 699 c-29 -16 -58 -33 -64 -37 -6 -5 -45 -17 -86 -27 -41 -10
-99 -24 -127 -32 -60 -15 -127 -68 -118 -91 3 -8 10 -58 15 -110 9 -89 9 -97
-9 -116 -11 -12 -25 -42 -30 -68 -6 -26 -20 -72 -32 -102 -22 -60 -19 -76 12
-76 14 0 19 7 19 29 0 21 8 36 28 50 19 13 34 39 48 81 22 70 59 114 74 90 5
-8 10 -30 10 -49 0 -24 11 -49 40 -86 21 -28 46 -68 55 -88 15 -36 39 -56 52
-44 3 3 -6 25 -21 49 -56 94 -70 132 -74 206 -2 39 0 72 5 72 5 0 19 -7 31
-16 30 -20 84 -20 160 1 46 13 66 15 74 7 8 -8 8 -51 0 -154 -10 -145 -7 -168
24 -168 17 0 18 14 2 39 -8 14 -8 31 1 72 7 30 18 80 24 111 7 31 15 59 19 63
3 4 27 -12 52 -35 46 -43 46 -43 46 -110 0 -82 6 -100 32 -100 17 0 19 4 14
28 -4 15 -12 66 -20 114 -11 75 -17 91 -39 109 -35 27 -34 40 2 29 16 -4 32
-6 35 -2 4 3 26 7 51 8 39 3 47 -1 67 -26 18 -23 35 -31 71 -36 l47 -7 1 64
c0 35 0 95 -1 132 -1 40 4 74 11 83 6 8 7 14 2 14 -5 0 -7 15 -5 33 2 22 -2
38 -12 46 -14 12 -16 10 -16 -18 0 -27 -3 -31 -27 -31 -55 1 -112 21 -211 73
-120 65 -155 68 -232 26z"/>
</g>
</svg>
