<?xml version="1.0" standalone="no"?>
<!DOCTYPE svg PUBLIC "-//W3C//DTD SVG 20010904//EN"
 "http://www.w3.org/TR/2001/REC-SVG-20010904/DTD/svg10.dtd">
<svg version="1.0" xmlns="http://www.w3.org/2000/svg"
 width="63.000000pt" height="66.000000pt" viewBox="0 0 63.000000 66.000000"
 preserveAspectRatio="xMidYMid meet">

<g transform="translate(0.000000,66.000000) scale(0.100000,-0.100000)"
fill="#5d4242" stroke="none">
<path d="M495 633 c-39 -10 -45 -23 -45 -99 0 -69 -2 -75 -27 -91 -42 -28
-216 -44 -291 -28 -38 9 -62 -7 -62 -40 0 -12 10 -29 22 -37 21 -14 21 -16 9
-124 -18 -161 -19 -164 -54 -180 l-32 -13 31 -1 c17 0 36 6 42 13 5 6 20 57
32 112 20 96 40 145 60 145 16 0 70 -75 80 -110 5 -19 10 -57 12 -85 l3 -50
-40 -6 c-31 -5 -22 -6 38 -8 42 0 77 2 77 7 1 4 5 40 9 80 10 80 25 109 42 79
12 -21 56 -44 120 -63 41 -13 49 -19 49 -39 0 -14 5 -25 10 -25 6 0 10 6 10
13 0 6 3 21 6 33 5 17 -4 24 -60 48 -36 15 -67 35 -70 44 -3 10 -6 58 -8 108
-2 67 1 96 11 108 10 11 14 40 13 90 -1 55 2 77 13 86 23 19 58 -1 78 -43 23
-47 21 -66 -5 -77 -22 -8 -22 -9 4 -9 15 -1 29 3 33 8 10 17 -17 102 -42 132
-25 29 -31 31 -68 22z m-135 -340 c0 -10 -9 -43 -21 -73 -16 -41 -20 -68 -16
-107 3 -29 2 -55 -2 -58 -5 -2 -11 26 -13 64 -3 42 -14 87 -27 115 -30 61 -30
60 4 67 56 12 75 10 75 -8z"/>
</g>
</svg>
