<?xml version="1.0" standalone="no"?>
<!DOCTYPE svg PUBLIC "-//W3C//DTD SVG 20010904//EN"
 "http://www.w3.org/TR/2001/REC-SVG-20010904/DTD/svg10.dtd">
<svg version="1.0" xmlns="http://www.w3.org/2000/svg"
 width="35.000000pt" height="64.000000pt" viewBox="0 0 35.000000 64.000000"
 preserveAspectRatio="xMidYMid meet">

<g transform="translate(0.000000,64.000000) scale(0.100000,-0.100000)"
fill="#5d4242" stroke="none">
<path d="M87 593 c-52 -26 -53 -38 -7 -48 22 -5 30 -12 30 -29 0 -43 -37 -191
-58 -233 -12 -22 -24 -60 -28 -82 -5 -34 -4 -41 10 -41 10 0 23 15 32 35 8 19
18 35 22 35 4 0 18 -31 31 -68 27 -77 24 -113 -11 -130 -22 -10 -22 -11 7 -11
54 -1 75 9 70 33 -8 31 10 54 32 40 26 -16 28 -35 4 -41 -35 -9 -24 -23 19
-23 36 0 40 3 40 24 0 39 18 76 36 76 29 0 12 137 -30 246 -19 49 -38 114 -42
144 -13 98 -62 121 -157 73z"/>
</g>
</svg>
