<?xml version="1.0" standalone="no"?>
<!DOCTYPE svg PUBLIC "-//W3C//DTD SVG 20010904//EN"
 "http://www.w3.org/TR/2001/REC-SVG-20010904/DTD/svg10.dtd">
<svg version="1.0" xmlns="http://www.w3.org/2000/svg"
 width="106.000000pt" height="71.000000pt" viewBox="0 0 106.000000 71.000000"
 preserveAspectRatio="xMidYMid meet">

<g transform="translate(0.000000,71.000000) scale(0.100000,-0.100000)"
fill="#5d4242" stroke="none">
<path d="M126 692 c-12 -11 -5 -49 23 -130 27 -76 28 -89 22 -170 -8 -93 -19
-119 -115 -287 -31 -54 -42 -82 -34 -86 18 -11 46 8 64 44 9 18 40 64 70 103
29 39 65 96 79 127 15 31 30 59 34 62 15 9 42 -32 71 -109 36 -92 38 -131 8
-163 l-21 -23 30 0 c47 0 60 47 44 154 -22 147 -24 140 39 147 64 7 93 20 137
61 30 29 32 29 42 10 6 -10 16 -60 22 -109 12 -86 11 -94 -10 -146 -17 -41
-29 -57 -44 -59 -33 -5 -22 -23 15 -26 31 -2 35 1 66 57 18 33 35 82 38 108 9
73 10 76 36 62 50 -26 67 -50 73 -108 10 -89 14 -101 30 -95 11 5 15 23 15 76
l0 70 41 -36 c69 -59 144 -72 137 -25 -2 14 -16 25 -43 34 -84 29 -151 142
-161 271 -3 43 -10 92 -16 107 -25 67 -141 84 -298 46 -47 -11 -107 -21 -135
-22 -53 -1 -110 20 -110 41 0 14 -6 16 -45 7 -16 -3 -44 -2 -64 3 -19 6 -37 7
-40 4z m672 -278 c7 -26 11 -48 9 -50 -8 -9 -57 38 -57 55 0 16 18 41 30 41 3
0 11 -21 18 -46z"/>
</g>
</svg>
