<?xml version="1.0" standalone="no"?>
<!DOCTYPE svg PUBLIC "-//W3C//DTD SVG 20010904//EN"
 "http://www.w3.org/TR/2001/REC-SVG-20010904/DTD/svg10.dtd">
<svg version="1.0" xmlns="http://www.w3.org/2000/svg"
 width="290.000000pt" height="163.000000pt" viewBox="0 0 290.000000 163.000000"
 preserveAspectRatio="xMidYMid meet">

<g transform="translate(0.000000,163.000000) scale(0.100000,-0.100000)"
fill="#5d4242" stroke="none">
<path d="M726 1572 c-3 -5 1 -15 9 -22 26 -22 17 -54 -28 -98 -23 -23 -48 -42
-54 -42 -23 0 -28 -28 -29 -187 -1 -132 -4 -167 -18 -187 -9 -14 -16 -36 -16
-48 0 -13 -15 -46 -33 -74 -17 -28 -45 -73 -62 -99 -16 -27 -49 -70 -72 -96
-38 -40 -43 -52 -43 -92 0 -50 16 -67 64 -67 23 0 65 42 92 93 6 9 59 62 119
117 92 84 115 100 151 106 23 3 51 3 63 -1 34 -10 90 -77 97 -114 4 -19 20
-53 36 -75 16 -23 36 -52 45 -66 27 -44 64 -65 111 -63 89 3 97 52 21 129 -39
39 -52 60 -56 91 -8 57 6 65 98 51 93 -13 192 -14 291 -4 92 10 113 1 97 -42
-13 -35 -26 -42 -74 -42 -62 0 -70 -10 -70 -82 l0 -63 59 -3 c32 -2 64 2 69 7
6 6 21 11 34 11 46 0 119 57 128 101 4 15 13 33 21 40 8 6 14 16 14 22 0 20
53 67 75 67 12 0 30 -8 39 -19 9 -10 29 -21 44 -24 45 -10 144 -117 158 -171
7 -31 31 -46 72 -46 36 0 82 34 82 62 0 11 -25 48 -56 81 -31 34 -63 78 -71
97 -8 18 -30 52 -48 75 -68 84 -64 110 20 126 54 10 98 -1 150 -36 27 -18 46
-20 185 -20 l155 0 3 30 c2 16 10 38 18 49 8 11 14 32 14 46 0 16 17 45 45 77
25 28 45 58 45 66 0 7 9 22 20 32 13 12 20 31 20 57 0 42 -15 51 -24 14 -7
-30 -77 -93 -112 -102 -39 -10 -76 7 -99 43 -23 37 -31 39 -56 18 -15 -14 -18
-14 -33 0 -15 15 -15 19 1 45 16 28 16 29 -15 65 -18 19 -32 39 -32 43 0 4 -4
14 -9 21 -8 12 -20 6 -61 -33 -43 -40 -56 -47 -78 -42 -15 4 -44 11 -64 15
-20 5 -47 15 -60 23 -13 8 -40 18 -62 21 -21 3 -46 12 -55 20 -9 8 -58 22
-109 32 -89 16 -98 16 -190 0 -53 -10 -105 -25 -116 -34 -15 -13 -50 -17 -217
-19 -133 -3 -214 0 -246 8 -70 18 -173 24 -186 11 -6 -6 -25 -11 -42 -11 -19
0 -39 -8 -50 -20 -10 -11 -22 -20 -26 -20 -5 0 -25 -11 -45 -25 -45 -30 -64
-32 -64 -5 0 13 10 24 24 30 35 13 47 43 44 103 -3 45 -6 52 -25 55 -11 2 -24
-1 -27 -6z"/>
</g>
</svg>
